<?xml version="1.0" encoding="UTF-8" standalone="no"?>
<!-- Created with Inkscape (http://www.inkscape.org/) -->

<svg
   width="210mm"
   height="297mm"
   viewBox="0 0 210 297"
   version="1.1"
   id="svg5"
   inkscape:version="1.2.2 (732a01da63, 2022-12-09)"
   sodipodi:docname="Lasercutter Lesezeichen GIF.svg"
   xmlns:inkscape="http://www.inkscape.org/namespaces/inkscape"
   xmlns:sodipodi="http://sodipodi.sourceforge.net/DTD/sodipodi-0.dtd"
   xmlns="http://www.w3.org/2000/svg"
   xmlns:svg="http://www.w3.org/2000/svg">
  <sodipodi:namedview
     id="namedview7"
     pagecolor="#ffffff"
     bordercolor="#666666"
     borderopacity="1.0"
     inkscape:showpageshadow="2"
     inkscape:pageopacity="0.0"
     inkscape:pagecheckerboard="0"
     inkscape:deskcolor="#d1d1d1"
     inkscape:document-units="mm"
     showgrid="false"
     inkscape:zoom="1.5921554"
     inkscape:cx="365.5422"
     inkscape:cy="119.96316"
     inkscape:window-width="1920"
     inkscape:window-height="1001"
     inkscape:window-x="3191"
     inkscape:window-y="342"
     inkscape:window-maximized="1"
     inkscape:current-layer="layer1" />
  <defs
     id="defs2" />
  <g
     inkscape:label="Ebene 1"
     inkscape:groupmode="layer"
     id="layer1">
    <rect
       style="opacity:0.95;fill:none;stroke:#ff0000;stroke-width:0.1"
       id="rect592"
       width="170"
       height="40"
       x="11.750653"
       y="11.750653"
       rx="7.1999998" />
    <text
       xml:space="preserve"
       style="font-style:normal;font-variant:normal;font-weight:normal;font-stretch:normal;font-size:12.7px;line-height:1.25;font-family:'Sofia Pro';-inkscape-font-specification:'Sofia Pro';fill:#000000;fill-opacity:1;stroke:none;stroke-width:0.264583"
       x="42.610264"
       y="30.219519"
       id="text712"><tspan
         sodipodi:role="line"
         id="tspan710"
         style="font-style:normal;font-variant:normal;font-weight:normal;font-stretch:normal;font-size:12.7px;font-family:'Sofia Pro';-inkscape-font-specification:'Sofia Pro';stroke-width:0.264583"
         x="42.610264"
         y="30.219519">Dein</tspan><tspan
         sodipodi:role="line"
         style="font-style:normal;font-variant:normal;font-weight:normal;font-stretch:normal;font-size:12.7px;font-family:'Sofia Pro';-inkscape-font-specification:'Sofia Pro';stroke-width:0.264583"
         x="42.610264"
         y="46.094517"
         id="tspan714">Lesezeichen</tspan></text>
    <path
       sodipodi:type="star"
       style="opacity:0.95;fill:none;stroke:#000000;stroke-width:0.5"
       id="path822"
       inkscape:flatsided="false"
       sodipodi:sides="7"
       sodipodi:cx="108.18274"
       sodipodi:cy="23.431288"
       sodipodi:r1="10.108295"
       sodipodi:r2="1.6173272"
       sodipodi:arg1="-0.16514868"
       sodipodi:arg2="0.28365027"
       inkscape:rounded="1.97"
       inkscape:randomized="0"
       d="m 118.1535,21.769494 c 2.81101,16.866063 -3.63278,-14.3010269 -8.41806,2.114422 -4.78528,16.415449 17.39699,-6.406839 5.96321,6.306715 -11.43378,12.713555 8.91599,-11.756769 -6.9017,-5.263185 -15.817684,6.493585 15.85592,9.606918 -1.21278,8.594399 -17.068709,-1.012519 14.75084,-0.359425 -0.18822,-8.677507 -14.939054,-8.318081 2.37501,18.386471 -7.475531,4.410325 -9.850543,-13.976145 9.478011,11.308574 6.667001,-5.557488 -2.81101,-16.8660627 -12.894329,13.320635 -8.109051,-3.094814 4.785281,-16.415449 -2.931958,14.460986 8.501821,1.747432 11.43379,-12.7135546 -18.453969,-1.77591 -2.63628,-8.269495 15.81768,-6.4935843 -13.134103,6.723981 3.9346,7.736501 17.0687,1.012519 -10.1174,-15.535159 4.82165,-7.217078 14.93906,8.318082 -13.445993,-6.0763187 -3.59545,7.899827 9.85054,13.976145 5.83778,-17.5961163 8.64879,-0.730054 z"
       inkscape:transform-center-x="0.049558565"
       inkscape:transform-center-y="-0.085038479"
       transform="translate(21.352626,9.6852392)" />
    <path
       sodipodi:type="star"
       style="opacity:0.95;fill:none;stroke:#ff0000;stroke-width:0.1"
       id="path876"
       inkscape:flatsided="false"
       sodipodi:sides="5"
       sodipodi:cx="138.59357"
       sodipodi:cy="26.588694"
       sodipodi:r1="5.7686019"
       sodipodi:r2="2.8843009"
       sodipodi:arg1="0.72425"
       sodipodi:arg2="1.3525685"
       inkscape:rounded="0"
       inkscape:randomized="0"
       d="m 142.91423,30.410819 -3.69621,-1.006232 -2.92435,2.474403 -0.18521,-3.82625 -3.25697,-2.016588 3.58175,-1.358521 0.91143,-3.720723 2.39885,2.986637 3.82026,-0.282945 -2.09917,3.204365 z"
       inkscape:transform-center-x="0.061714874"
       inkscape:transform-center-y="-0.20874682"
       transform="translate(-109.57148,3.4996503)" />
    <path
       sodipodi:type="star"
       style="opacity:0.95;fill:none;stroke:#ff0000;stroke-width:0.209334"
       id="path876-3"
       inkscape:flatsided="false"
       sodipodi:sides="5"
       sodipodi:cx="138.59357"
       sodipodi:cy="26.588694"
       sodipodi:r1="5.7686019"
       sodipodi:r2="2.8843009"
       sodipodi:arg1="0.72425"
       sodipodi:arg2="1.3525685"
       inkscape:rounded="0"
       inkscape:randomized="0"
       d="m 142.91423,30.410819 -3.69621,-1.006232 -2.92435,2.474403 -0.18521,-3.82625 -3.25697,-2.016588 3.58175,-1.358521 0.91143,-3.720723 2.39885,2.986637 3.82026,-0.282945 -2.09917,3.204365 z"
       inkscape:transform-center-x="0.029481055"
       inkscape:transform-center-y="-0.099719657"
       transform="matrix(0.47770458,0,0,0.47770458,-29.261663,9.0139104)" />
    <path
       sodipodi:type="star"
       style="opacity:0.95;fill:none;stroke:#ff0000;stroke-width:0.209334"
       id="path876-3-9"
       inkscape:flatsided="false"
       sodipodi:sides="5"
       sodipodi:cx="138.59357"
       sodipodi:cy="26.588694"
       sodipodi:r1="5.7686019"
       sodipodi:r2="2.8843009"
       sodipodi:arg1="0.72425"
       sodipodi:arg2="1.3525685"
       inkscape:rounded="0"
       inkscape:randomized="0"
       d="m 142.91423,30.410819 -3.69621,-1.006232 -2.92435,2.474403 -0.18521,-3.82625 -3.25697,-2.016588 3.58175,-1.358521 0.91143,-3.720723 2.39885,2.986637 3.82026,-0.282945 -2.09917,3.204365 z"
       inkscape:transform-center-x="0.029481055"
       inkscape:transform-center-y="-0.099719657"
       transform="matrix(0.47770458,0,0,0.47770458,-31.615739,33.248865)" />
    <path
       sodipodi:type="star"
       style="opacity:0.95;fill:none;stroke:#ff0000;stroke-width:0.2093344"
       id="path876-3-7"
       inkscape:flatsided="false"
       sodipodi:sides="5"
       sodipodi:cx="138.59357"
       sodipodi:cy="26.588694"
       sodipodi:r1="5.7686019"
       sodipodi:r2="2.8843009"
       sodipodi:arg1="0.72425"
       sodipodi:arg2="1.3525685"
       inkscape:rounded="0"
       inkscape:randomized="0"
       d="m 142.91423,30.410819 -3.69621,-1.006232 -2.92435,2.474403 -0.18521,-3.82625 -3.25697,-2.016588 3.58175,-1.358521 0.91143,-3.720723 2.39885,2.986637 3.82026,-0.282945 -2.09917,3.204365 z"
       inkscape:transform-center-x="0.029481055"
       inkscape:transform-center-y="-0.099719657"
       transform="matrix(0.47770458,0,0,0.47770458,-47.572904,6.3260666)" />
    <text
       xml:space="preserve"
       style="font-style:normal;font-variant:normal;font-weight:normal;font-stretch:normal;font-size:6.96515px;line-height:1.25;font-family:'Sofia Pro';-inkscape-font-specification:'Sofia Pro';fill:#000000;fill-opacity:1;stroke:none;stroke-width:0.174129"
       x="53.153759"
       y="144.25095"
       id="text946"
       transform="rotate(-54.510274)"><tspan
         sodipodi:role="line"
         id="tspan944"
         style="font-style:normal;font-variant:normal;font-weight:normal;font-stretch:normal;font-family:'Sofia Pro';-inkscape-font-specification:'Sofia Pro';stroke-width:0.174129"
         x="53.153759"
         y="144.25095">made in</tspan><tspan
         sodipodi:role="line"
         style="font-style:normal;font-variant:normal;font-weight:normal;font-stretch:normal;font-family:'Sofia Pro';-inkscape-font-specification:'Sofia Pro';stroke-width:0.174129"
         x="53.153759"
         y="152.95738"
         id="tspan948">techLAB</tspan></text>
  </g>
</svg>
