<?xml version="1.0" encoding="UTF-8" standalone="no"?>
<!-- Created with Inkscape (http://www.inkscape.org/) -->

<svg
   width="210mm"
   height="297mm"
   viewBox="0 0 210 297"
   version="1.1"
   id="svg5"
   inkscape:version="1.2.2 (732a01da63, 2022-12-09)"
   sodipodi:docname="Lasercutter Lesezeichen.svg"
   xmlns:inkscape="http://www.inkscape.org/namespaces/inkscape"
   xmlns:sodipodi="http://sodipodi.sourceforge.net/DTD/sodipodi-0.dtd"
   xmlns="http://www.w3.org/2000/svg"
   xmlns:svg="http://www.w3.org/2000/svg">
  <sodipodi:namedview
     id="namedview7"
     pagecolor="#ffffff"
     bordercolor="#666666"
     borderopacity="1.0"
     inkscape:showpageshadow="2"
     inkscape:pageopacity="0.0"
     inkscape:pagecheckerboard="0"
     inkscape:deskcolor="#d1d1d1"
     inkscape:document-units="mm"
     showgrid="false"
     inkscape:zoom="1.4132541"
     inkscape:cx="492.48043"
     inkscape:cy="256.85402"
     inkscape:window-width="1920"
     inkscape:window-height="1001"
     inkscape:window-x="2771"
     inkscape:window-y="1791"
     inkscape:window-maximized="1"
     inkscape:current-layer="layer1" />
  <defs
     id="defs2" />
  <g
     inkscape:label="Ebene 1"
     inkscape:groupmode="layer"
     id="layer1">
    <rect
       style="fill:none;stroke:#ff0000;stroke-width:0.1;stroke-dasharray:none"
       id="rect108"
       width="39.950001"
       height="169.95"
       x="23.262173"
       y="110.49743"
       ry="8.0447636" />
    <text
       xml:space="preserve"
       style="font-style:normal;font-variant:normal;font-weight:normal;font-stretch:normal;font-size:6.38369px;line-height:1.25;font-family:Sans;-inkscape-font-specification:'Sans, Normal';font-variant-ligatures:normal;font-variant-caps:normal;font-variant-numeric:normal;font-variant-east-asian:normal;fill:#000000;fill-opacity:1;stroke:none;stroke-width:0.264583"
       x="143.23079"
       y="209.00089"
       id="text996"
       transform="rotate(26.682681)"><tspan
         sodipodi:role="line"
         id="tspan994"
         style="font-style:normal;font-variant:normal;font-weight:normal;font-stretch:normal;font-size:6.38369px;font-family:'Sofia Pro';-inkscape-font-specification:'Sofia Pro, Normal';font-variant-ligatures:normal;font-variant-caps:normal;font-variant-numeric:normal;font-variant-east-asian:normal;stroke-width:0.264583"
         x="143.23079"
         y="209.00089">made in </tspan><tspan
         sodipodi:role="line"
         style="font-style:normal;font-variant:normal;font-weight:normal;font-stretch:normal;font-size:6.38369px;font-family:'Sofia Pro';-inkscape-font-specification:'Sofia Pro, Normal';font-variant-ligatures:normal;font-variant-caps:normal;font-variant-numeric:normal;font-variant-east-asian:normal;stroke-width:0.264583"
         x="143.23079"
         y="217.20312"
         id="tspan1952">techLAB</tspan></text>
    <path
       sodipodi:type="star"
       style="fill:none;stroke:#ff0000;stroke-width:0.1;stroke-dasharray:none"
       id="path1826"
       inkscape:flatsided="false"
       sodipodi:sides="5"
       sodipodi:cx="67.039696"
       sodipodi:cy="45.14006"
       sodipodi:r1="3.1044841"
       sodipodi:r2="1.5522422"
       sodipodi:arg1="0.52807445"
       sodipodi:arg2="1.156393"
       inkscape:rounded="0"
       inkscape:randomized="0"
       d="m 69.721284,46.70432 -2.056588,-0.143404 -1.284043,1.612869 -0.499135,-2.000245 -1.930721,-0.722794 1.748105,-1.092815 0.09079,-2.059581 1.579523,1.324848 1.986834,-0.550096 -0.771906,1.911616 z"
       inkscape:transform-center-x="0.20365634"
       inkscape:transform-center-y="0.096006439"
       transform="translate(-11.151539,83.639543)" />
    <path
       sodipodi:type="star"
       style="fill:none;stroke:#ff0000;stroke-width:0.1;stroke-dasharray:none"
       id="path1828"
       inkscape:flatsided="false"
       sodipodi:sides="5"
       sodipodi:cx="76.20179"
       sodipodi:cy="49.38591"
       sodipodi:r1="2.5479004"
       sodipodi:r2="1.2739503"
       sodipodi:arg1="0.66104317"
       sodipodi:arg2="1.2893617"
       inkscape:rounded="0"
       inkscape:randomized="0"
       d="m 78.212981,50.95017 -1.657372,-0.340429 -1.220026,1.172308 -0.188389,-1.681452 -1.49194,-0.798051 1.54094,-0.698766 0.297957,-1.665531 1.140742,1.249591 1.676088,-0.231303 -0.835923,1.471055 z"
       inkscape:transform-center-x="0.2186734"
       inkscape:transform-center-y="-0.025761589"
       transform="translate(-21.430959,69.015056)" />
    <path
       sodipodi:type="star"
       style="fill:none;stroke:#ff0000;stroke-width:0.140636;stroke-dasharray:none"
       id="path1830"
       inkscape:flatsided="false"
       sodipodi:sides="5"
       sodipodi:cx="49.609375"
       sodipodi:cy="65.922371"
       sodipodi:r1="3.3220558"
       sodipodi:r2="1.661028"
       sodipodi:arg1="0.73781506"
       sodipodi:arg2="1.3661336"
       inkscape:rounded="0"
       inkscape:randomized="0"
       d="m 52.067497,68.157027 -2.12054,-0.608294 -1.703265,1.401998 -0.07676,-2.204727 -1.859718,-1.18666 2.0731,-0.754301 0.553897,-2.135395 1.358006,1.738543 2.202044,-0.133086 -1.233805,1.82878 z"
       inkscape:transform-center-x="0.14833688"
       inkscape:transform-center-y="-0.07977542"
       transform="matrix(0.71097915,0,0,0.71112738,-4.6970435,85.791134)" />
    <path
       sodipodi:type="star"
       style="fill:none;stroke:#ff0000;stroke-width:0.115603;stroke-dasharray:none"
       id="path1832"
       inkscape:flatsided="false"
       sodipodi:sides="5"
       sodipodi:cx="60.335728"
       sodipodi:cy="67.486626"
       sodipodi:r1="5.2975974"
       sodipodi:r2="2.6487987"
       sodipodi:arg1="0.4825133"
       sodipodi:arg2="1.1108318"
       inkscape:rounded="0"
       inkscape:randomized="0"
       d="m 65.028507,69.944748 -3.516934,-0.08462 -2.06351,2.849195 -1.006316,-3.370951 -3.347405,-1.082065 2.894996,-1.998744 -0.0053,-3.517948 2.795522,2.135659 3.344129,-1.092147 -1.167268,3.318655 z"
       inkscape:transform-center-x="0.23728003"
       inkscape:transform-center-y="0.20574443"
       transform="matrix(0.8650269,0,0,0.86503718,-7.7741845,62.404096)" />
    <path
       style="color:#000000;fill:#000000;stroke-width:0.727971;-inkscape-stroke:none"
       d="m 45.520866,240.92589 c -1.03104,0.0522 -2.050629,-0.0259 -2.975394,-0.17964 -0.931888,0.0828 -1.951741,0.0841 -2.973242,-0.0452 -1.165635,-0.14754 -2.289675,-0.40047 -3.147506,-0.69491 -0.428915,-0.14722 -0.790926,-0.30352 -1.06387,-0.469 -0.11119,-0.0674 -0.132393,-0.16342 -0.21514,-0.23665 -0.08996,-0.0629 -0.187555,-0.0603 -0.278607,-0.15167 -0.225352,-0.22605 -0.463293,-0.53997 -0.707813,-0.92188 -0.489039,-0.7638 -1.000798,-1.79706 -1.419928,-2.89468 -0.368032,-0.96382 -0.608997,-1.95636 -0.748689,-2.88287 -0.36708,-0.86106 -0.683872,-1.83092 -0.876697,-2.84307 -0.219885,-1.15417 -0.325825,-2.30197 -0.310879,-3.20879 0.0075,-0.45341 0.04422,-0.84566 0.117252,-1.15638 0.02961,-0.126 0.11435,-0.17545 0.158129,-0.27645 0.03196,-0.10539 -9.08e-4,-0.19772 0.05809,-0.31303 0.145343,-0.28417 0.371751,-0.60787 0.659405,-0.95844 0.575308,-0.70113 1.398366,-1.50718 2.312761,-2.24498 0.803956,-0.64868 1.674919,-1.18569 2.513917,-1.60494 0.705079,-0.6144 1.528028,-1.21369 2.430013,-1.70928 1.029738,-0.56577 2.088963,-1.02159 2.956031,-1.2876 0.433533,-0.13301 0.817863,-0.21977 1.135942,-0.24633 0.129182,-0.0108 0.202239,0.0541 0.311954,0.0645 0.109991,-0.002 0.187458,-0.0613 0.31518,-0.0409 0.31518,0.0504 0.692129,0.165 1.114428,0.33024 0.844599,0.33048 1.866356,0.8654 2.850613,1.50705 0.863828,0.56313 1.641324,1.22397 2.298777,1.89107 0.803579,0.48094 1.630207,1.08079 2.381607,1.78673 0.856296,0.80449 1.616485,1.66929 2.137419,2.4117 0.260463,0.37122 0.461626,0.71149 0.585181,1.00578 0.05031,0.11977 0.01157,0.20955 0.03548,0.31734 0.03571,0.1036 0.115588,0.15891 0.135538,0.28613 0.04948,0.31533 0.05682,0.70906 0.03011,1.16174 -0.05334,0.90539 -0.245741,2.04218 -0.551832,3.17654 -0.268036,0.99331 -0.655413,1.93427 -1.085384,2.76453 -0.20879,0.91474 -0.524618,1.88862 -0.964909,2.82369 -0.500513,1.06299 -1.088875,2.05367 -1.63399,2.77852 -0.272558,0.36243 -0.533864,0.65856 -0.775582,0.86701 -0.09847,0.0849 -0.196302,0.0751 -0.291516,0.13124 -0.08758,0.0661 -0.115196,0.15999 -0.2302,0.21836 -0.284619,0.14447 -0.657366,0.27271 -1.096141,0.38725 -0.87755,0.22907 -2.017103,0.39774 -3.190534,0.45717 z m -0.01937,-0.37757 c 1.149646,-0.0582 2.271645,-0.22513 3.115236,-0.44534 0.283897,-0.0741 0.476488,-0.15921 0.686298,-0.24203 -0.002,-0.003 -0.0066,-0.002 -0.0086,-0.005 -0.07356,-0.10727 -0.11316,-0.23879 -0.134463,-0.39694 -0.01368,-0.10149 0.03063,-0.30692 0.03227,-0.43458 -0.190907,-0.0615 -0.285869,-0.12325 -0.561517,-0.18178 -0.607373,-0.12898 -2.081827,-0.19585 -3.142128,-0.29475 0.05761,0.43256 -0.01985,0.81913 -0.225897,1.12733 -0.249377,0.37303 -0.678079,0.60905 -1.175744,0.78849 0.485729,0.0187 0.920012,0.11003 1.41455,0.085 z m -2.58814,-0.16996 c 0.971804,-0.1311 1.717773,-0.43948 2.035229,-0.91434 0.158729,-0.23743 0.226603,-0.51877 0.172113,-0.88745 -0.0026,-0.0179 -0.0258,-0.0474 -0.02905,-0.0656 -0.874752,-0.0732 -1.259189,-0.18536 -2.449374,-0.23019 -1.190261,-0.0449 -1.582314,0.038 -2.460132,0.0452 -0.0046,0.0179 -0.02938,0.0459 -0.03335,0.0635 -0.08207,0.36354 -0.03607,0.64951 0.104343,0.89821 0.280833,0.49739 1.000742,0.86002 1.959931,1.06386 0.105111,0.0223 0.250281,0.003 0.36036,0.0215 0.104459,-0.01 0.239631,0.0189 0.339922,0.005 z m -1.876026,-0.0291 c -0.482883,-0.21639 -0.892704,-0.48483 -1.113352,-0.87562 -0.182327,-0.32293 -0.231024,-0.71416 -0.140918,-1.14131 -1.064422,0.0188 -2.539805,-0.0248 -3.155035,0.0581 -0.279062,0.0376 -0.378439,0.0918 -0.57335,0.13877 -0.008,0.12742 0.02019,0.33547 -0.0011,0.43566 -0.03314,0.15609 -0.08208,0.28366 -0.163506,0.3851 -0.0024,0.003 -0.0072,0.002 -0.0097,0.005 0.203007,0.0984 0.389365,0.19732 0.666935,0.2926 0.824634,0.28304 1.9302,0.53421 3.072207,0.67876 0.491565,0.0622 0.931724,0.005 1.417777,0.0226 z m 8.620682,-0.67124 c 0.02068,0.002 0.128073,-0.0764 0.191475,-0.10542 0.04753,-0.0454 0.159167,-0.11297 0.164582,-0.13231 0.0062,-0.0222 0.0082,-0.027 -0.01506,-0.0624 -0.02322,-0.0354 -0.08316,-0.0926 -0.189324,-0.15382 -0.0457,-0.0264 -0.191694,-0.0544 -0.253866,-0.0818 0.0017,0.0678 -0.02747,0.21348 -0.02044,0.2657 0.01637,0.12148 0.04704,0.1985 0.071,0.23342 0.02395,0.035 0.02875,0.0339 0.05164,0.0366 z m 0.659406,-0.49697 c 0.156269,-0.16265 0.307725,-0.30875 0.484066,-0.54323 0.52402,-0.6968 1.10382,-1.67146 1.594188,-2.7129 0.210908,-0.44792 0.292216,-0.88395 0.459327,-1.34031 -0.3548,0.39187 -0.73623,0.69839 -1.175741,0.78741 -0.363024,0.0735 -0.750446,-2.4e-4 -1.128413,-0.2173 -0.31089,1.01789 -0.808472,2.40671 -0.919726,3.01732 -0.05048,0.27711 -0.02961,0.38849 -0.04518,0.58841 0.118394,0.0468 0.324553,0.0845 0.413071,0.13554 0.138211,0.0797 0.24495,0.16552 0.316256,0.2743 0.0021,0.003 1.52e-4,0.008 0.0021,0.0108 z m -14.776927,-0.0344 c 0.02302,-7.6e-4 0.02835,-3.2e-4 0.05486,-0.0334 0.02651,-0.0331 0.06275,-0.10707 0.08821,-0.22697 0.01095,-0.0516 -0.0068,-0.19925 0,-0.26677 -0.06433,0.0226 -0.212604,0.0395 -0.26032,0.0624 -0.110477,0.0531 -0.174265,0.10627 -0.200081,0.13984 -0.02582,0.0336 -0.02388,0.0377 -0.01937,0.0602 0.004,0.0201 0.111279,0.0971 0.157053,0.14738 0.05925,0.0323 0.159248,0.11809 0.179642,0.11725 z m 13.679712,-0.50666 c 0.01909,-0.18904 -0.0047,-0.29734 0.03872,-0.53569 0.122327,-0.6714 0.638628,-2.12088 0.986419,-3.24 -0.291611,-0.23184 -0.582599,-0.46565 -0.874546,-0.89174 -0.402959,-0.58812 -0.811301,-1.40212 -1.223075,-2.42032 -0.789905,0.43119 -1.618609,0.90488 -2.622563,1.57805 -1.004025,0.67321 -1.756978,1.26054 -2.455829,1.8276 0.785576,0.7675 1.383845,1.45421 1.774909,2.05027 0.283215,0.43168 0.388882,0.78902 0.492672,1.1467 1.16761,0.10317 2.704663,0.17555 3.372328,0.31732 0.237365,0.0504 0.328623,0.1136 0.510959,0.16781 z m -14.299317,-0.0387 c 0.0023,-0.003 -1.55e-4,-0.008 0.0021,-0.0108 0.07929,-0.10311 0.192875,-0.18043 0.336694,-0.24956 0.09229,-0.0443 0.300874,-0.0665 0.422752,-0.10434 -4.79e-4,-0.20055 0.02843,-0.31038 -0.0011,-0.59056 -0.065,-0.61723 -0.457187,-2.03924 -0.690601,-3.07756 -0.393339,0.18815 -0.784756,0.23296 -1.141321,0.13231 -0.431285,-0.12174 -0.789194,-0.45536 -1.113352,-0.87239 0.132197,0.46706 0.180756,0.90746 0.357133,1.36936 0.410634,1.07538 0.915391,2.09053 1.385505,2.82478 0.158311,0.24725 0.298439,0.40471 0.442113,0.57872 z m 1.134866,-0.45717 c 0.185787,-0.0403 0.281434,-0.0956 0.521717,-0.12802 0.676352,-0.0911 2.21447,-0.0474 3.386311,-0.0624 0.130362,-0.34913 0.262463,-0.69843 0.577653,-1.10797 0.434702,-0.56483 1.082552,-1.20439 1.923357,-1.91043 -0.654174,-0.61799 -1.360168,-1.26048 -2.310609,-2.00725 -0.950569,-0.74687 -1.741417,-1.28117 -2.496707,-1.7706 -0.487096,0.98405 -0.955672,1.76534 -1.40164,2.32135 -0.323334,0.40312 -0.630717,0.61473 -0.939089,0.82398 0.262602,1.14207 0.669689,2.62586 0.74116,3.30454 0.02537,0.24087 -0.007,0.34688 -0.0021,0.53677 z m 8.864867,-0.028 c -0.09706,-0.28202 -0.158586,-0.54362 -0.392632,-0.90035 -0.37594,-0.57301 -0.979431,-1.25702 -1.770606,-2.02661 -0.846421,0.70761 -1.497974,1.34491 -1.915827,1.88784 -0.2601,0.33796 -0.340243,0.59426 -0.458249,0.86809 0.831799,-0.003 1.180649,-0.0831 2.272959,-0.042 1.092825,0.0412 1.434848,0.14764 2.264355,0.21298 z m 6.683341,-3.11414 c 0.559835,-0.11337 1.127592,-0.68576 1.617854,-1.53501 0.05311,-0.092 0.07892,-0.23468 0.130159,-0.33239 0.02315,-0.10387 0.0935,-0.22501 0.111874,-0.32593 0.175621,-0.96475 0.112569,-1.76944 -0.240951,-2.21809 -0.176764,-0.22433 -0.42317,-0.37571 -0.790642,-0.43781 -0.01793,-0.003 -0.05357,0.009 -0.0721,0.007 -0.340084,0.80954 -0.565051,1.14145 -0.975666,2.26004 -0.41036,1.11789 -0.45312,1.51559 -0.717494,2.35254 0.01574,0.01 0.03495,0.0424 0.05056,0.0517 0.320383,0.19039 0.60646,0.23526 0.886378,0.17857 z m -8.827216,-0.29904 c 0.718839,-0.58572 1.504444,-1.19403 2.537582,-1.88676 1.033206,-0.69279 1.894854,-1.18813 2.709695,-1.63076 -0.335015,-0.8648 -0.671489,-1.79993 -1.01116,-2.99688 -0.339653,-1.19689 -0.545103,-2.16896 -0.714266,-3.0808 -0.925816,0.0513 -1.918521,0.0812 -3.161492,0.0344 -1.243048,-0.0468 -2.231364,-0.15129 -3.150732,-0.27215 -0.237279,0.89647 -0.515765,1.85055 -0.944467,3.0184 -0.428736,1.16796 -0.833647,2.07479 -1.232755,2.91191 0.779243,0.50268 1.60136,1.0612 2.579534,1.82976 0.978107,0.76851 1.715318,1.43472 2.388061,2.07286 z m 7.590158,-0.23987 c 0.254459,-0.79204 0.285889,-1.14875 0.662633,-2.17506 0.376778,-1.02641 0.584081,-1.31824 0.902516,-2.08685 -0.298156,0.005 -0.566346,-0.0177 -0.977815,0.0947 -0.661025,0.18043 -1.497927,0.54185 -2.474117,1.05633 0.411546,1.02407 0.815291,1.84208 1.202636,2.40741 0.240944,0.35165 0.460273,0.50668 0.684147,0.70351 z m -16.414146,-0.12586 c 0.274861,0.0776 0.563338,0.0549 0.897136,-0.1108 0.01611,-0.008 0.03749,-0.0387 0.05378,-0.0474 -0.200704,-0.85477 -0.21366,-1.25476 -0.538927,-2.40096 -0.325265,-1.14619 -0.524286,-1.49394 -0.802474,-2.32673 -0.01852,7.6e-4 -0.05301,-0.0135 -0.071,-0.0119 -0.371107,0.0343 -0.628701,0.16609 -0.821836,0.37649 -0.386271,0.42078 -0.509162,1.21811 -0.406615,2.19334 0.0109,0.10364 0.07261,0.2318 0.08821,0.33884 0.04308,0.0996 0.05796,0.24142 0.103267,0.33562 0.424987,0.88373 0.948735,1.49816 1.498454,1.65334 z m 1.272557,-0.44319 c 0.238362,-0.17948 0.468656,-0.31884 0.73578,-0.65188 0.428748,-0.53455 0.892744,-1.31941 1.380127,-2.30951 -0.934585,-0.58635 -1.741477,-1.00958 -2.386985,-1.2392 -0.401956,-0.14299 -0.671163,-0.14023 -0.968132,-0.16781 0.259705,0.79038 0.443746,1.0974 0.742235,2.14924 0.298524,1.05196 0.302804,1.41012 0.496975,2.21916 z m 18.68173,-2.17614 c 0.167768,-0.45593 0.388481,-0.84099 0.517415,-1.3188 0.29988,-1.11136 0.487667,-2.22873 0.538925,-3.09908 0.01725,-0.29328 -0.003,-0.50399 -0.01725,-0.72932 -0.0038,7.6e-4 -0.0045,0.007 -0.0086,0.008 -0.12475,0.0368 -0.261461,0.034 -0.418449,0.005 -0.100744,-0.0183 -0.282509,-0.12357 -0.403386,-0.16457 -0.117471,0.16251 -0.205596,0.23365 -0.346378,0.4776 -0.31026,0.53763 -0.829491,1.91943 -1.251042,2.89685 0.428882,0.079 0.772143,0.27262 1.001481,0.56366 0.277478,0.35216 0.370218,0.83253 0.387248,1.36076 z m -5.550627,-0.73254 c 0.972689,-0.50995 1.811127,-0.86646 2.498857,-1.05418 0.498153,-0.13598 0.870153,-0.12587 1.242436,-0.11403 0.458985,-1.07869 1.003448,-2.51754 1.344629,-3.10876 0.121254,-0.21012 0.209447,-0.27795 0.317333,-0.43458 -0.174032,-0.0766 -0.284574,-0.0872 -0.498054,-0.20223 -0.600736,-0.32381 -1.819515,-1.26288 -2.776385,-1.93948 -0.310682,0.20584 -0.623014,0.41007 -1.118732,0.55614 -0.683798,0.20148 -1.584079,0.33823 -2.679574,0.41521 0.165993,0.88444 0.360642,1.81911 0.6906,2.98183 0.330023,1.16295 0.655525,2.06019 0.97889,2.90008 z m -16.453949,-0.0968 c 0.05676,-0.52528 0.185252,-0.99721 0.488369,-1.32741 0.250477,-0.27286 0.607914,-0.43966 1.04128,-0.48621 -0.346867,-1.00652 -0.760486,-2.42341 -1.029447,-2.98291 -0.121882,-0.25354 -0.203919,-0.33157 -0.308727,-0.50235 -0.123705,0.0318 -0.31332,0.12265 -0.415221,0.13338 -0.158693,0.0167 -0.295744,0.01 -0.417373,-0.0365 -0.0034,-7.6e-4 -0.0042,-0.006 -0.0076,-0.008 -0.03084,0.22351 -0.06831,0.43155 -0.07314,0.72503 -0.01437,0.87173 0.09007,2.00058 0.305499,3.13135 0.09259,0.48602 0.283351,0.88606 0.416297,1.35322 z m 5.589351,-0.31196 c 0.38572,-0.8133 0.778429,-1.68322 1.195106,-2.81832 0.416445,-1.13447 0.680144,-2.05223 0.912196,-2.92159 -1.086419,-0.15916 -1.974225,-0.36405 -2.640851,-0.61636 -0.48321,-0.18291 -0.778186,-0.41041 -1.072475,-0.63897 -1.005118,0.60273 -2.290655,1.4477 -2.914079,1.72541 -0.221548,0.0987 -0.332723,0.10129 -0.512034,0.16458 0.09579,0.16429 0.17889,0.23855 0.283985,0.45717 0.29561,0.61494 0.729493,2.09076 1.105823,3.20019 0.372279,0.0161 0.744877,0.0344 1.23168,0.20762 0.671594,0.23891 1.479195,0.65869 2.410649,1.24027 z m 17.338175,-4.36087 c 0.04063,-0.012 0.04199,-0.0167 0.05167,-0.0377 0.0086,-0.0188 -0.03299,-0.14517 -0.04085,-0.21406 -0.0286,-0.0597 -0.05848,-0.18674 -0.07528,-0.19793 -0.01922,-0.0128 -0.02368,-0.0165 -0.06453,-0.005 -0.04085,0.0111 -0.113311,0.0503 -0.204379,0.13231 -0.03927,0.0353 -0.111752,0.1654 -0.157055,0.21622 0.06529,0.0194 0.195368,0.0927 0.247412,0.10219 0.120589,0.0219 0.202487,0.0163 0.243107,0.005 z m -0.843352,-0.25168 c 0.08144,-0.0986 0.18091,-0.2842 0.257096,-0.35282 0.118562,-0.10681 0.232712,-0.18094 0.358211,-0.21515 0.0038,-7.6e-4 0.0078,0.003 0.0118,0.002 -0.106479,-0.19918 -0.199037,-0.38971 -0.367895,-0.63036 -0.500771,-0.71369 -1.248999,-1.56543 -2.08794,-2.35362 -0.360765,-0.33895 -0.750369,-0.55096 -1.132713,-0.85088 0.26317,0.45863 0.437347,0.91623 0.386178,1.36183 -0.04228,0.36813 -0.23373,0.71331 -0.557215,1.00578 0.872261,0.61042 2.039518,1.5126 2.585993,1.80716 0.248259,0.13382 0.360972,0.14929 0.546452,0.2259 z M 31.63892,225.34658 c 0.05249,-0.005 0.187468,-0.0684 0.253866,-0.0828 -0.04137,-0.0541 -0.103326,-0.1898 -0.139842,-0.22805 -0.08464,-0.0887 -0.154793,-0.13211 -0.194702,-0.14629 -0.03991,-0.0142 -0.04338,-0.0113 -0.06347,0 -0.01794,0.0101 -0.05762,0.13627 -0.09143,0.19578 -0.01226,0.066 -0.06301,0.18745 -0.05593,0.20653 0.008,0.0216 0.0088,0.0259 0.04841,0.0409 0.03961,0.015 0.121208,0.0268 0.243108,0.014 z m 0.617453,-0.20223 c 0.190585,-0.0624 0.304171,-0.0682 0.561517,-0.18287 0.56701,-0.25258 1.798462,-1.0652 2.713997,-1.60816 -0.30032,-0.31588 -0.464234,-0.6744 -0.478687,-1.0445 -0.01752,-0.4485 0.189981,-0.89174 0.487293,-1.32956 -0.404037,0.27041 -0.808584,0.45274 -1.194029,0.76375 -0.89586,0.72284 -1.705932,1.51719 -2.258977,2.19118 -0.186151,0.22687 -0.291998,0.40881 -0.413069,0.59917 0.0036,7.5e-4 0.0073,-0.002 0.01076,-7.6e-4 0.122567,0.0436 0.23081,0.12661 0.340999,0.24203 0.07066,0.074 0.156564,0.26591 0.2302,0.37004 z m 10.894717,-0.37972 c 1.207713,0.0455 2.161815,0.0135 3.060374,-0.0344 -0.184402,-1.08263 -0.264179,-1.99008 -0.230199,-2.70214 0.02463,-0.5161 0.148939,-0.86825 0.275379,-1.21876 -0.883441,-0.76937 -2.084171,-1.73051 -2.54081,-2.23746 -0.162545,-0.18045 -0.199474,-0.28558 -0.315181,-0.43672 -0.126599,0.14178 -0.171045,0.24351 -0.346376,0.41091 -0.49375,0.47141 -1.763655,1.34044 -2.703241,2.04167 0.09957,0.35889 0.198204,0.71876 0.183945,1.23489 -0.01969,0.71266 -0.168146,1.61163 -0.433508,2.67742 0.892572,0.11546 1.841566,0.2191 3.049617,0.26461 z m 3.448703,-0.0398 c 1.100961,-0.075 2.002924,-0.20649 2.660213,-0.40016 0.409478,-0.12066 0.625545,-0.28009 0.882076,-0.43243 -0.674761,-0.48683 -1.004314,-0.62706 -1.864193,-1.30267 -0.859697,-0.67547 -1.073498,-0.96241 -1.706064,-1.50274 -0.08719,0.28515 -0.192661,0.53245 -0.212989,0.95844 -0.03266,0.68438 0.05335,1.59227 0.240957,2.67956 z m -6.884497,-0.25817 c 0.269033,-1.07051 0.423187,-1.96972 0.442114,-2.65482 0.01178,-0.42646 -0.0743,-0.68146 -0.139842,-0.97243 -0.671493,0.49128 -0.906492,0.76147 -1.81471,1.37044 -0.908233,0.60898 -1.24725,0.72384 -1.956704,1.15852 0.244292,0.17111 0.44755,0.34702 0.846578,0.49806 0.640832,0.24255 1.530424,0.44267 2.622564,0.60023 z m 10.811888,-0.76482 c 0.01425,-0.0118 0.05102,-0.0194 0.06454,-0.0312 0.28008,-0.24587 0.411683,-0.50475 0.444265,-0.78847 0.06516,-0.56748 -0.304415,-1.28393 -0.960602,-2.01264 -0.06926,-0.0769 -0.193943,-0.14361 -0.268926,-0.22051 -0.09418,-0.0558 -0.190117,-0.163 -0.28291,-0.21299 -0.863265,-0.46514 -1.646657,-0.65475 -2.182601,-0.45717 -0.267972,0.0988 -0.487859,0.28715 -0.660481,0.61745 -0.0085,0.0162 -0.0079,0.0541 -0.01614,0.071 0.664651,0.5734 0.910448,0.88954 1.846981,1.62538 0.936451,0.73578 1.301531,0.89907 2.015868,1.40916 z m -14.652147,-0.55186 c 0.750877,-0.455 1.12747,-0.59077 2.116983,-1.25426 0.989516,-0.6635 1.258203,-0.96043 1.964233,-1.4823 -0.0068,-0.0172 -0.0036,-0.0544 -0.01076,-0.0711 -0.147285,-0.34234 -0.352293,-0.54611 -0.612075,-0.66477 -0.519561,-0.23733 -1.315834,-0.10845 -2.211645,0.29043 -0.08893,0.0396 -0.184882,0.132 -0.27538,0.17642 -0.0872,0.0765 -0.225962,0.13815 -0.306574,0.21514 -0.70915,0.67727 -1.131339,1.36442 -1.10905,1.93517 0.01114,0.28538 0.12216,0.55237 0.38295,0.8186 0.01254,0.0129 0.04806,0.0238 0.06131,0.0366 z m 10.489177,-2.74733 c 0.207638,-0.38366 0.497735,-0.65059 0.845502,-0.7788 0.421099,-0.15523 0.90741,-0.0936 1.415625,0.0538 -0.382068,-0.30072 -0.680132,-0.62986 -1.095065,-0.90036 -0.964306,-0.62863 -1.969853,-1.15277 -2.781768,-1.47047 -0.27328,-0.10693 -0.479689,-0.15129 -0.698131,-0.20761 -1.1e-5,0.004 0.0044,0.006 0.0043,0.01 -0.0036,0.13002 -0.04906,0.25862 -0.124781,0.39908 -0.04861,0.0902 -0.204367,0.23114 -0.280759,0.33346 0.118229,0.16189 0.159039,0.26737 0.347452,0.47654 0.41537,0.46112 1.568524,1.38191 2.367622,2.0847 z m -6.089553,-0.22912 c 0.850001,-0.64087 2.069233,-1.47208 2.51822,-1.90075 0.20383,-0.19461 0.252816,-0.297 0.38295,-0.44964 -0.06831,-0.10758 -0.213323,-0.25941 -0.254941,-0.35283 -0.06494,-0.14576 -0.100916,-0.27777 -0.09466,-0.40769 1.83e-4,-0.004 0.0051,-0.006 0.0054,-0.01 -0.222264,0.0397 -0.431188,0.0687 -0.712116,0.1549 -0.833513,0.25572 -1.875093,0.70318 -2.883958,1.2575 -0.433613,0.23823 -0.755325,0.54351 -1.158533,0.8143 0.517026,-0.1083 1.005824,-0.13243 1.413474,0.0538 0.337136,0.154 0.606002,0.44192 0.784188,0.84011 z m 3.148585,-2.64188 c 0.03859,-0.056 0.148134,-0.15683 0.173188,-0.2033 0.05817,-0.1079 0.07845,-0.18786 0.0796,-0.2302 0.0011,-0.0424 -0.0024,-0.0446 -0.01936,-0.0602 -0.01501,-0.0138 -0.14693,-0.0132 -0.21299,-0.0269 -0.06754,0.009 -0.199047,-0.002 -0.21514,0.0108 -0.01807,0.0143 -0.0227,0.0169 -0.02474,0.0592 -0.002,0.0423 0.01251,0.12362 0.06239,0.23558 0.02144,0.0481 0.122888,0.15659 0.157053,0.21514 z"
       id="path1834" />
    <circle
       style="fill:none;stroke:#ff0000;stroke-width:0.0999996;stroke-dasharray:none"
       id="path1888"
       cx="43.237171"
       cy="273.64218"
       r="2.45" />
    <text
       xml:space="preserve"
       style="font-style:normal;font-weight:normal;font-size:10.5833px;line-height:0.95;font-family:sans-serif;fill:#000000;fill-opacity:1;stroke:none;stroke-width:0.264583"
       x="140.1819"
       y="-46.463646"
       id="text1948"
       transform="rotate(89.640214)"><tspan
         sodipodi:role="line"
         id="tspan1946"
         style="font-style:normal;font-variant:normal;font-weight:normal;font-stretch:normal;font-size:10.5833px;font-family:'Sofia Pro';-inkscape-font-specification:'Sofia Pro, Normal';font-variant-ligatures:normal;font-variant-caps:normal;font-variant-numeric:normal;font-variant-east-asian:normal;stroke-width:0.264583"
         x="140.1819"
         y="-46.463646">Dein </tspan><tspan
         sodipodi:role="line"
         style="font-style:normal;font-variant:normal;font-weight:normal;font-stretch:normal;font-size:10.5833px;font-family:'Sofia Pro';-inkscape-font-specification:'Sofia Pro, Normal';font-variant-ligatures:normal;font-variant-caps:normal;font-variant-numeric:normal;font-variant-east-asian:normal;stroke-width:0.264583"
         x="140.1819"
         y="-36.040417"
         id="tspan1950">Lesezeichen</tspan></text>
    <text
       xml:space="preserve"
       style="font-style:normal;font-weight:normal;font-size:10.5833px;line-height:0.95;font-family:sans-serif;fill:#000000;fill-opacity:1;stroke:none;stroke-width:0.264583"
       x="53.120445"
       y="31.755167"
       id="text1948-7"
       transform="rotate(-0.359786)"><tspan
         sodipodi:role="line"
         style="font-style:normal;font-variant:normal;font-weight:normal;font-stretch:normal;font-size:10.5833px;font-family:'Sofia Pro';-inkscape-font-specification:'Sofia Pro, Normal';font-variant-ligatures:normal;font-variant-caps:normal;font-variant-numeric:normal;font-variant-east-asian:normal;stroke-width:0.264583"
         x="53.120445"
         y="31.755167"
         id="tspan1950-2">Dein Lesezeichen</tspan></text>
    <rect
       style="fill:none;stroke:#ff0000;stroke-width:0.1"
       id="rect369"
       width="170"
       height="40"
       x="16.772055"
       y="7.4542465"
       ry="8.0447636" />
    <circle
       style="fill:none;stroke:#ff0000;stroke-width:0.1"
       id="path563"
       cx="27.378637"
       cy="27.454247"
       r="2.5" />
  </g>
</svg>
