<?xml version="1.0" encoding="UTF-8" standalone="no"?>
<!-- Created with Inkscape (http://www.inkscape.org/) -->

<svg
   xmlns:dc="http://purl.org/dc/elements/1.1/"
   xmlns:cc="http://creativecommons.org/ns#"
   xmlns:rdf="http://www.w3.org/1999/02/22-rdf-syntax-ns#"
   xmlns:svg="http://www.w3.org/2000/svg"
   xmlns="http://www.w3.org/2000/svg"
   xmlns:sodipodi="http://sodipodi.sourceforge.net/DTD/sodipodi-0.dtd"
   xmlns:inkscape="http://www.inkscape.org/namespaces/inkscape"
   width="253.29616mm"
   height="129.78227mm"
   viewBox="0 0 253.29616 129.78227"
   version="1.1"
   id="svg8"
   inkscape:version="0.92.3 (2405546, 2018-03-11)"
   sodipodi:docname="Nes_Controller_Halter_8mm_2.svg">
  <defs
     id="defs2" />
  <sodipodi:namedview
     id="base"
     pagecolor="#ffffff"
     bordercolor="#666666"
     borderopacity="1.0"
     inkscape:pageopacity="0.0"
     inkscape:pageshadow="2"
     inkscape:zoom="0.70710678"
     inkscape:cx="745.26208"
     inkscape:cy="77.305495"
     inkscape:document-units="mm"
     inkscape:current-layer="layer1"
     showgrid="false"
     inkscape:snap-text-baseline="true"
     inkscape:object-paths="true"
     inkscape:snap-object-midpoints="true"
     inkscape:snap-center="true"
     showguides="true"
     inkscape:guide-bbox="true"
     inkscape:snap-smooth-nodes="true"
     inkscape:window-width="1920"
     inkscape:window-height="1137"
     inkscape:window-x="-8"
     inkscape:window-y="-8"
     inkscape:window-maximized="1"
     fit-margin-top="0"
     fit-margin-left="0"
     fit-margin-right="0"
     fit-margin-bottom="0"
     inkscape:measure-start="473.354,163.161"
     inkscape:measure-end="533.225,187.068"
     inkscape:snap-to-guides="true"
     inkscape:snap-grids="false" />
  <metadata
     id="metadata5">
    <rdf:RDF>
      <cc:Work
         rdf:about="">
        <dc:format>image/svg+xml</dc:format>
        <dc:type
           rdf:resource="http://purl.org/dc/dcmitype/StillImage" />
        <dc:title></dc:title>
      </cc:Work>
    </rdf:RDF>
  </metadata>
  <g
     inkscape:label="Ebene 1"
     inkscape:groupmode="layer"
     id="layer1"
     transform="translate(-37.983196,52.476831)">
    <path
       style="fill:none;stroke:#ff0000;stroke-width:0.05;stroke-miterlimit:4;stroke-dasharray:none"
       d="m 199.21269,13.011908 v 63.808 h 8.00003 v -29.13621 h 8.00003 v 29.13621 h 17.58497 c 11.63597,-4.61523 21.92153,-8.73515 32.44919,-12.91188 l -6.74947,-17.01911 a 4.8644333,4.8644333 0 0 0 -6.24974,-2.76159 l -1.01183,0.40101 a 4.8644333,4.8644333 0 0 0 -2.68821,6.27352 l 2.7926,7.04195 -15.84089,6.32519 -20.28662,-51.15709 z"
       id="rect4727"
       inkscape:connector-curvature="0" />
    <g
       id="g2209"
       transform="translate(-41.854913,-12.278403)">
      <path
         inkscape:connector-curvature="0"
         id="rect4816"
         d="m 79.863109,25.751371 v 63.807474 h 8.000029 8.000028 125.000114 8.00003 8.00003 V 25.751371 h -8.00003 v 34.67127 h -8.00003 -8.00002 V 25.751371 H 103.86319 v 34.67127 h -8.000024 -8.000028 v -34.67127 z"
         style="fill:none;stroke:#ff0000;stroke-width:0.05;stroke-miterlimit:4;stroke-dasharray:none" />
      <g
         style="fill:none;stroke:#ff0000;stroke-width:0.04977946;stroke-miterlimit:4;stroke-dasharray:none"
         id="g4942"
         transform="matrix(-1.0088807,0,0,-1,295.61155,200.97513)">
        <circle
           r="1"
           cy="143.32002"
           cx="96.70314"
           id="circle4938"
           style="fill:none;stroke:#ff0000;stroke-width:0.04977946;stroke-miterlimit:4;stroke-dasharray:none" />
        <circle
           r="1"
           cy="143.32002"
           cx="175.37724"
           id="circle4940"
           style="fill:none;stroke:#ff0000;stroke-width:0.04977946;stroke-miterlimit:4;stroke-dasharray:none" />
      </g>
    </g>
    <path
       inkscape:connector-curvature="0"
       id="path2165"
       d="M 149.12451,-52.45169 V 11.3563 h 8.00003 v -29.13621 h 8.00003 V 11.3563 h 17.58497 C 194.34551,6.7410703 204.63108,2.6211503 215.15873,-1.5555797 L 208.40927,-18.57469 c -0.9773,-2.47494 -3.17718,-3.47149 -6.24975,-2.76159 -6.25385,1.45303 -24.65525,0.10267 -37.03495,-31.11541 z"
       style="fill:none;stroke:#ff0000;stroke-width:0.05;stroke-miterlimit:4;stroke-dasharray:none"
       sodipodi:nodetypes="cccccccccccc" />
    <path
       inkscape:connector-curvature="0"
       id="path2167"
       d="m 291.25427,76.879368 -0.19893,-63.80769 -8,0.025 0.0908,29.13607 -7.99998,0.0249 -0.0909,-29.13607 -17.58488,0.0548 c -11.62152,4.65147 -21.8942,8.80346 -32.40877,13.01298 l 6.80248,16.99799 a 4.8644333,4.8644333 0 0 0 6.25834,2.74209 l 1.01056,-0.40416 a 4.8644333,4.8644333 0 0 0 2.66864,-6.28187 l -2.81452,-7.03322 15.82108,-6.37455 20.446,51.09361 z"
       style="fill:none;stroke:#ff0000;stroke-width:0.05;stroke-miterlimit:4;stroke-dasharray:none" />
    <path
       sodipodi:nodetypes="cccccccccccc"
       style="fill:none;stroke:#ff0000;stroke-width:0.05;stroke-miterlimit:4;stroke-dasharray:none"
       d="m 236.61733,18.959835 21.60993,-60.037242 -7.52727,-2.70938 -9.86759,27.414399 -7.52727,-2.709381 9.8676,-27.414398 -16.54579,-5.955524 c -12.51138,0.401723 -23.58442,0.794748 -34.90448,1.159241 l 0.58672,18.29921 c 0.0814,2.659666 1.81373,4.342361 4.94515,4.715004 6.37638,0.750836 23.23301,8.253422 24.30846,41.819311 z"
       id="path2169"
       inkscape:connector-curvature="0" />
    <g
       id="g2203"
       transform="translate(-65.855207,-78.202546)">
      <rect
         transform="scale(-1)"
         y="-89.558846"
         x="-212.86304"
         height="63.807472"
         width="108.99963"
         id="rect4872"
         style="fill:none;stroke:#ff0000;stroke-width:0.05000001;stroke-miterlimit:4;stroke-dasharray:none" />
      <g
         transform="matrix(-1.0088807,0,0,-1,295.61155,200.97513)"
         id="g2197"
         style="fill:none;stroke:#ff0000;stroke-width:0.04977946;stroke-miterlimit:4;stroke-dasharray:none">
        <circle
           style="fill:none;stroke:#ff0000;stroke-width:0.04977946;stroke-miterlimit:4;stroke-dasharray:none"
           id="circle2193"
           cx="96.70314"
           cy="143.32002"
           r="1" />
        <circle
           style="fill:none;stroke:#ff0000;stroke-width:0.04977946;stroke-miterlimit:4;stroke-dasharray:none"
           id="circle2195"
           cx="175.37724"
           cy="143.32002"
           r="1" />
      </g>
    </g>
  </g>
</svg>
