<?xml version="1.0" encoding="UTF-8" standalone="no"?>
<!-- Created with Inkscape (http://www.inkscape.org/) -->

<svg
   xmlns:dc="http://purl.org/dc/elements/1.1/"
   xmlns:cc="http://creativecommons.org/ns#"
   xmlns:rdf="http://www.w3.org/1999/02/22-rdf-syntax-ns#"
   xmlns:svg="http://www.w3.org/2000/svg"
   xmlns="http://www.w3.org/2000/svg"
   xmlns:sodipodi="http://sodipodi.sourceforge.net/DTD/sodipodi-0.dtd"
   xmlns:inkscape="http://www.inkscape.org/namespaces/inkscape"
   width="124.265mm"
   height="124.265mm"
   viewBox="0 0 124.265 124.265"
   version="1.1"
   id="svg8"
   sodipodi:docname="ETTD_Button_DE_15_min.svg"
   inkscape:version="0.91 r13725"
   inkscape:export-filename="C:\Data\techLAB\ET2D_Buttons_Zeitdauer\ETTD_Button_EN_15_min.png"
   inkscape:export-xdpi="96"
   inkscape:export-ydpi="96">
  <defs
     id="defs2" />
  <sodipodi:namedview
     id="base"
     pagecolor="#ffffff"
     bordercolor="#666666"
     borderopacity="1.0"
     inkscape:pageopacity="0.0"
     inkscape:pageshadow="2"
     inkscape:zoom="0.86412741"
     inkscape:cx="64.461182"
     inkscape:cy="97.422749"
     inkscape:document-units="mm"
     inkscape:current-layer="layer1"
     showgrid="false"
     inkscape:measure-start="0,0"
     inkscape:measure-end="0,0"
     inkscape:window-width="1920"
     inkscape:window-height="1137"
     inkscape:window-x="1072"
     inkscape:window-y="302"
     inkscape:window-maximized="1"
     fit-margin-top="0"
     fit-margin-left="0"
     fit-margin-right="0"
     fit-margin-bottom="0"
     showguides="true"
     inkscape:guide-bbox="true" />
  <metadata
     id="metadata5">
    <rdf:RDF>
      <cc:Work
         rdf:about="">
        <dc:format>image/svg+xml</dc:format>
        <dc:type
           rdf:resource="http://purl.org/dc/dcmitype/StillImage" />
        <dc:title />
      </cc:Work>
    </rdf:RDF>
  </metadata>
  <g
     inkscape:label="Ebene 1"
     inkscape:groupmode="layer"
     id="layer1"
     transform="translate(-39.165123,-38.849037)">
    <flowRoot
       xml:space="preserve"
       id="flowRoot823"
       style="font-style:normal;font-weight:normal;font-size:40px;line-height:1.25;font-family:sans-serif;letter-spacing:0px;word-spacing:0px;fill:#000000;fill-opacity:1;stroke:none"><flowRegion
         id="flowRegion825"><rect
           id="rect827"
           width="454.28571"
           height="705.71429"
           x="265.71429"
           y="259.66254" /></flowRegion><flowPara
         id="flowPara829" /></flowRoot>    <g
       transform="matrix(0.11858097,0.01759523,-0.01788945,0.11663075,35.96403,31.612211)"
       style="font-style:normal;font-variant:normal;font-weight:normal;font-stretch:normal;font-size:399.98950195px;line-height:1.25;font-family:Scheherazade;-inkscape-font-specification:'Scheherazade, Normal';text-align:start;letter-spacing:0px;word-spacing:0px;writing-mode:lr-tb;text-anchor:start;fill:#000000;fill-opacity:1;stroke:none"
       id="flowRoot855">
      <path
         d="m 207.23884,718.00409 0,-6.88405 q 11.63168,0 18.04097,-1.42429 6.40929,-1.66166 9.25786,-5.69714 3.08595,-4.03548 3.56072,-10.91953 0.71214,-7.12144 0.71214,-17.80359 l 0,-136.73152 q 0,-8.30834 -0.47476,-15.42977 -0.23738,-7.12144 -1.66167,-12.34382 -1.42429,-5.45977 -4.51024,-8.54572 -2.84857,-3.08595 -8.07096,-3.08595 -4.74762,0 -9.49524,1.89904 -4.74763,1.66167 -8.7831,3.56072 l -3.08596,-5.45976 59.34528,-28.9605 6.40929,0 0,205.09728 q 0,10.44477 0.47476,17.32882 0.47476,6.88406 3.32334,11.15692 2.84857,4.03548 8.7831,5.69714 6.17191,1.66167 17.5662,1.66167 l 0,6.88405 -91.39173,0 z"
         style="font-style:normal;font-variant:normal;font-weight:normal;font-stretch:normal;font-size:486.15652466px;font-family:Scheherazade;-inkscape-font-specification:'Scheherazade, Normal';text-align:start;writing-mode:lr-tb;text-anchor:start"
         id="path4161"
         inkscape:connector-curvature="0" />
      <path
         d="m 388.79403,588.52251 q 13.03506,-5.04022 26.59152,-7.82103 13.73026,-2.95462 26.07012,-2.95462 41.88598,0 67.2609,19.29189 25.37491,19.11809 25.37491,50.92363 0,34.76016 -28.15572,54.92105 -28.15573,20.16089 -77.68895,20.16089 -29.71994,0 -48.49042,-13.03506 -18.77049,-13.03506 -18.77049,-33.36975 0,-11.81846 7.29964,-19.46569 7.29963,-7.82103 18.77048,-7.82103 11.64465,0 18.94429,6.95203 7.29963,6.95203 7.29963,18.24908 0,11.12325 -8.69004,18.77048 -8.51624,7.47344 -8.69004,8.69004 0,4.34502 8.16864,7.99484 8.86384,3.30221 20.68229,3.30221 24.67971,0 35.97676,-14.07786 11.29705,-14.25166 11.29705,-45.70961 0,-30.41513 -13.38266,-45.0144 -13.38266,-14.77306 -41.01698,-14.77306 -5.04022,0 -10.42805,0.6952 -5.38782,0.6952 -10.94945,2.25941 l -11.99225,2.78081 q -1.91181,0 -3.47602,-1.73801 -1.2166,-2.08561 -1.2166,-5.04022 l 2.43321,-87.07419 q 0,-8.86384 4.17122,-14.07786 4.34502,-5.21403 11.47085,-5.21403 l 76.99375,0 q 21.02989,0 26.07011,-2.95461 5.21403,-3.12842 6.25683,-12.33986 l 8.16864,0 q 0,16.68488 -2.08561,28.32953 -1.91181,11.64465 -5.73543,17.38008 -7.12583,10.77565 -30.24133,10.77565 l -86.20519,0 -2.08561,61.00407 z"
         style="font-style:normal;font-variant:normal;font-weight:normal;font-stretch:normal;font-size:355.94400024px;font-family:'Bodoni Bd BT';-inkscape-font-specification:'Bodoni Bd BT'"
         id="path4163"
         inkscape:connector-curvature="0" />
      <path
         d="m 578.32748,718.00409 0,-77.51018 q 0,-18.56387 -0.84381,-27.96635 -0.48218,-7.35322 -3.13416,-17.96114 l 19.76932,-4.46015 q 2.29034,7.23267 3.2547,13.98317 0.48218,2.53144 1.20545,13.13936 l 2.53143,0 q 6.14778,-12.29555 15.42971,-19.28713 10.0052,-8.07649 22.78293,-8.07649 7.23268,0 13.98318,2.65198 6.75049,2.53144 11.33119,7.23268 6.87104,6.75049 9.76411,20.0104 l 1.44654,0 q 7.23267,-13.98317 16.99679,-21.45694 10.48738,-8.43812 23.5062,-8.43812 15.79134,0 24.22946,8.79975 7.35322,7.35323 10.36684,22.4213 2.1698,10.96956 2.1698,30.61833 l 0,66.29953 -20.73367,0 0,-72.08567 q 0,-9.52302 -1.0849,-15.6708 -1.68763,-9.52302 -6.02723,-14.82698 -5.42451,-6.38887 -15.18862,-6.38887 -11.09011,0 -20.49259,10.60793 -5.66559,6.38886 -13.50099,19.76931 0.24109,2.04926 0.24109,6.02723 l 0,72.56785 -20.73368,0 0,-72.08567 q 0,-15.30916 -3.01361,-23.5062 -5.06287,-13.38045 -19.16659,-13.38045 -10.84902,0 -20.61313,10.84902 -5.6656,6.26831 -13.74209,20.85421 l 0,77.26909 -20.73367,0 z"
         style="font-style:normal;font-variant:normal;font-weight:normal;font-stretch:normal;font-size:246.87535095px;font-family:Alef;-inkscape-font-specification:'Alef, Normal';text-align:start;writing-mode:lr-tb;text-anchor:start"
         id="path4165"
         inkscape:connector-curvature="0" />
      <path
         d="m 822.79195,620.60405 q 0,-3.85742 -1.92872,-5.78614 -1.92871,-2.89307 -6.75049,-2.89307 l -20.2515,0 0,-5.78614 9.64357,0 q 8.67921,0 16.39407,-0.96436 7.71485,-1.92871 14.46535,-5.78614 l 1.92871,0 0,101.25747 q 0,3.85743 1.92872,5.78614 2.89307,1.92872 6.7505,1.92872 l 20.25149,0 0,5.78614 -71.36241,0 0,-5.78614 20.2515,0 q 4.82178,0 6.75049,-1.92872 1.92872,-1.92871 1.92872,-5.78614 l 0,-80.04162 z m 11.57228,-19.28713 0,0 z m -3.85743,-54.00399 q 4.82179,0 8.67921,3.85743 3.85743,2.89307 3.85743,7.71486 0,4.82178 -3.85743,8.67921 -3.85742,3.85742 -8.67921,3.85742 -4.82178,0 -8.67921,-3.85742 -3.85743,-3.85743 -3.85743,-8.67921 0,-4.82179 3.85743,-7.71486 3.85743,-3.85743 8.67921,-3.85743 z"
         style="font-style:normal;font-variant:normal;font-weight:normal;font-stretch:normal;font-size:246.87535095px;font-family:NSimSun;-inkscape-font-specification:'NSimSun, Normal';text-align:start;writing-mode:lr-tb;text-anchor:start"
         id="path4167"
         inkscape:connector-curvature="0" />
      <path
         d="m 895.23926,710.65087 14.82699,0 0,-81.97033 -16.39407,0 0,-7.71485 25.43492,-0.36164 q 6.14777,0 11.21064,-0.24109 5.18342,-0.36163 13.501,-1.0849 l 0,24.47056 q 6.99159,-12.65719 16.51461,-18.56387 9.52302,-5.90669 22.78293,-5.90669 15.91189,0 22.05962,6.62996 6.2684,6.62995 6.2684,28.20743 l 0,56.53542 14.3448,0 0,7.35322 -60.27233,0 0,-7.35322 12.65718,0 0,-68.22824 q 0,-6.87105 -2.41089,-9.76412 -2.41089,-3.01361 -7.71486,-3.01361 -8.9203,0 -16.51461,10.60792 -7.47376,10.60793 -7.47376,24.22947 l 0,46.16858 12.41609,0 0,7.35322 -61.23666,0 0,-7.35322 z"
         style="font-style:normal;font-variant:normal;font-weight:normal;font-stretch:normal;font-size:246.87535095px;font-family:'Bodoni Bd BT';-inkscape-font-specification:'Bodoni Bd BT, Normal';text-align:start;writing-mode:lr-tb;text-anchor:start"
         id="path4169"
         inkscape:connector-curvature="0" />
    </g>
    <circle
       style="fill:none;stroke:#000000;stroke-width:2.2650001;stroke-linejoin:round;stroke-miterlimit:4;stroke-dasharray:none"
       id="path899"
       cx="101.29762"
       cy="100.98154"
       r="61"
       inkscape:export-xdpi="96"
       inkscape:export-ydpi="96" />
    <g
       transform="matrix(0.79176739,0.201894,-0.30239188,1.1858898,1.9581999e-6,2.6703651e-7)"
       style="font-style:normal;font-weight:normal;font-size:23.48142433px;line-height:1.25;font-family:sans-serif;letter-spacing:0px;word-spacing:0px;fill:#000000;fill-opacity:1;stroke:none;stroke-width:0.58703583"
       id="text833">
      <path
         inkscape:connector-curvature="0"
         d="m 105.03734,44.383953 0,-7.372599 q 0,-1.765754 -0.0803,-2.660097 -0.0459,-0.699423 -0.29812,-1.708425 l 1.88042,-0.42424 q 0.21785,0.687956 0.30958,1.330049 0.0459,0.240785 0.11466,1.249787 l 0.24078,0 q 0.58476,-1.169525 1.46764,-1.83455 0.95167,-0.768218 2.16706,-0.768218 0.68796,0 1.33005,0.252251 0.6421,0.240785 1.0778,0.687956 0.65356,0.642093 0.92874,1.903346 l 0.13759,0 q 0.68796,-1.330049 1.6167,-2.040937 0.99754,-0.802616 2.23586,-0.802616 1.50204,0 2.30465,0.837014 0.69942,0.699422 0.98607,2.132664 0.20639,1.043401 0.20639,2.912349 l 0,6.306266 -1.97214,0 0,-6.856631 q 0,-0.905809 -0.10319,-1.490572 -0.16053,-0.905809 -0.5733,-1.410311 -0.51597,-0.607695 -1.44471,-0.607695 -1.05487,0 -1.94921,1.009003 -0.5389,0.607695 -1.28418,1.880414 0.0229,0.194921 0.0229,0.573297 l 0,6.902495 -1.97214,0 0,-6.856631 q 0,-1.456175 -0.28665,-2.235858 -0.48157,-1.27272 -1.82309,-1.27272 -1.03193,0 -1.96067,1.031935 -0.5389,0.596229 -1.30712,1.983607 l 0,7.349667 -1.97214,0 z"
         style="font-style:normal;font-variant:normal;font-weight:normal;font-stretch:normal;font-size:23.48224258px;font-family:Alef;-inkscape-font-specification:'Alef, Normal';text-align:start;writing-mode:lr-tb;text-anchor:start;stroke-width:0.58703583"
         id="path3353" />
      <path
         inkscape:connector-curvature="0"
         d="m 130.05602,43.019506 q -0.68796,0.825548 -1.52497,1.21539 -0.83702,0.378376 -1.99508,0.378376 -1.18099,0 -1.82308,-0.584763 -0.64209,-0.596229 -0.64209,-1.708425 0,-1.479106 1.5823,-2.373449 1.59376,-0.894343 4.33412,-0.894343 l 0,-2.224393 q 0,-0.756752 -0.33251,-1.009002 -0.32105,-0.263717 -1.23832,-0.263717 -0.5733,0 -0.89435,0.137592 -0.30958,0.137591 -0.30958,0.401307 0,0.05733 0.20639,0.458638 0.21785,0.401308 0.21785,0.768218 0,0.642092 -0.41277,1.020468 -0.41277,0.355444 -1.15806,0.355444 -0.66502,0 -1.03193,-0.36691 -0.35545,-0.378376 -0.35545,-1.066332 0,-1.089264 1.13513,-1.708425 0.5733,-0.30958 1.35298,-0.458637 0.77968,-0.149058 1.85748,-0.149058 0.90581,0 1.63963,0.126126 0.74529,0.126125 1.26125,0.401308 0.51597,0.263716 0.73383,0.67649 0.21785,0.401308 0.21785,1.444708 l 0,4.746899 q 0,0.401308 0.17199,0.607695 0.18345,0.183455 0.56183,0.183455 0.13759,0 0.32104,-0.103194 0.18346,-0.103193 0.26372,-0.103193 0.0688,0 0.14906,0.0688 0.0803,0.0688 0.0803,0.171989 0,0.435705 -0.67649,0.940207 -0.66503,0.504501 -1.52497,0.504501 -0.76822,0 -1.34152,-0.412774 -0.56183,-0.42424 -0.82554,-1.180992 z m -0.0688,-3.336588 -0.27518,0 q -1.41031,0 -1.99507,0.412774 -0.5733,0.401308 -0.5733,1.375913 0,0.997536 0.29811,1.433242 0.32105,0.42424 0.99754,0.42424 0.68796,0 1.1122,-0.458638 0.4357,-0.458637 0.4357,-1.215389 l 0,-1.972142 z"
         style="font-style:normal;font-variant:normal;font-weight:normal;font-stretch:normal;font-size:23.48224258px;font-family:'Bodoni Bd BT';-inkscape-font-specification:'Bodoni Bd BT, Normal';text-align:start;writing-mode:lr-tb;text-anchor:start;stroke-width:0.58703583"
         id="path3355" />
      <path
         inkscape:connector-curvature="0"
         d="m 146.03954,44.383953 -2.1556,0 0,-1.307117 q -0.5045,0.42424 -0.87141,0.699422 -0.36691,0.275183 -0.85995,0.504502 -0.45863,0.217852 -0.95167,0.332512 -0.49304,0.126125 -1.14659,0.126125 -1.0434,0 -1.93775,-0.435705 -0.88287,-0.435706 -1.50204,-1.27272 -0.63062,-0.848479 -0.9746,-2.086801 -0.34398,-1.249787 -0.34398,-2.866484 0,-1.685493 0.43571,-2.912349 0.4357,-1.238321 1.20392,-2.155596 0.69942,-0.837014 1.68549,-1.307117 0.99754,-0.48157 2.0868,-0.48157 0.96314,0 1.67403,0.217853 0.71089,0.206387 1.50204,0.653559 l 0,-5.549515 2.1556,0 0,17.841001 z m -2.1556,-3.118735 0,-7.384065 q -0.80262,-0.389842 -1.44471,-0.538899 -0.63063,-0.149057 -1.37591,-0.149057 -1.66256,0 -2.60277,1.249787 -0.94021,1.238322 -0.94021,3.588839 0,2.25879 0.72236,3.462714 0.72235,1.192457 2.31612,1.192457 0.84848,0 1.70842,-0.378376 0.85995,-0.389842 1.6167,-1.0434 z"
         style="font-style:normal;font-variant:normal;font-weight:normal;font-stretch:normal;font-size:23.48224258px;font-family:Tahoma;-inkscape-font-specification:'Tahoma, Normal';text-align:start;writing-mode:lr-tb;text-anchor:start;stroke-width:0.58703583"
         id="path3357" />
      <path
         inkscape:connector-curvature="0"
         d="m 154.43742,35.840116 4.6681,0 0,-2.669949 q 0,-1.102431 -0.56844,-1.601969 -0.55121,-0.516765 -1.77422,-0.516765 -1.17133,0 -1.757,0.53399 -0.56844,0.516764 -0.56844,1.584744 l 0,2.669949 z m 8.61274,3.892958 0.80959,0.275608 q -0.87849,2.411567 -2.58382,3.600125 -1.68809,1.171332 -4.35804,1.171332 -3.68626,0 -5.87389,-1.946479 -2.17041,-1.946479 -2.17041,-5.184869 0,-3.221164 2.25654,-5.322672 2.27376,-2.118734 5.71886,-2.118734 3.13503,0 4.97816,1.756999 1.86035,1.739773 1.86035,4.771457 l 0,0.172255 -9.25008,0 0,3.462321 q 0,1.998155 0.62012,2.756076 0.63734,0.757921 2.20486,0.757921 2.11873,0 3.56567,-1.033528 1.44694,-1.033529 2.22209,-3.117812 z"
         style="font-style:normal;font-variant:normal;font-weight:normal;font-stretch:normal;font-size:35.27777863px;font-family:'Bodoni Bd BT';-inkscape-font-specification:'Bodoni Bd BT, Normal';text-align:start;writing-mode:lr-tb;text-anchor:start;stroke-width:0.58703583"
         id="path3359" />
      <path
         inkscape:connector-curvature="0"
         d="m 180.10223,33.330788 q 0,0.298115 -0.11466,0.561831 -0.10319,0.263717 -0.29811,0.458638 -0.18346,0.194921 -0.43571,0.30958 -0.25225,0.114659 -0.55036,0.114659 -0.29812,0 -0.56183,-0.103193 -0.25225,-0.114659 -0.44717,-0.298114 -0.19492,-0.194921 -0.30958,-0.458638 -0.11466,-0.275183 -0.11466,-0.584763 0,-0.298114 0.11466,-0.550365 0.11466,-0.263717 0.30958,-0.447172 0.19492,-0.183455 0.44717,-0.286648 0.26371,-0.103193 0.56183,-0.103193 0.27518,0 0.52743,0.114659 0.26372,0.103193 0.44717,0.298114 0.19492,0.183455 0.30958,0.435706 0.11466,0.252251 0.11466,0.538899 z m -3.57737,11.053165 0,-0.687956 q 0.30958,0 0.49304,-0.04586 0.19492,-0.05733 0.29811,-0.183455 0.10319,-0.137591 0.13759,-0.378376 0.0459,-0.240785 0.0459,-0.619161 l 0,-3.588839 q 0,-0.687956 -0.1032,-0.928741 -0.10319,-0.240784 -0.37837,-0.240784 -0.14906,0 -0.36691,0.0344 -0.21786,0.0344 -0.37838,0.09173 l -0.20639,-0.642093 3.21047,-0.963138 0.68795,0 0,6.248936 q 0,0.378376 0.0459,0.619161 0.0459,0.229319 0.14905,0.36691 0.11466,0.137591 0.29812,0.183455 0.18345,0.04586 0.45863,0.04586 l 0,0.687956 -4.39145,0 z"
         style="font-style:normal;font-variant:normal;font-weight:bold;font-stretch:normal;font-size:23.48224258px;font-family:Scheherazade;-inkscape-font-specification:'Scheherazade Bold';text-align:start;writing-mode:lr-tb;text-anchor:start;stroke-width:0.58703583"
         id="path3361" />
      <path
         inkscape:connector-curvature="0"
         d="m 181.56987,43.684531 1.41031,0 0,-7.796839 -1.55936,0 0,-0.73382 2.41931,-0.0344 q 0.58476,0 1.06633,-0.02293 0.49304,-0.0344 1.28419,-0.103194 l 0,2.327586 q 0.66502,-1.203924 1.57083,-1.765755 0.90581,-0.561831 2.16706,-0.561831 1.51351,0 2.09827,0.630627 0.59623,0.630627 0.59623,2.68303 l 0,5.377525 1.36445,0 0,0.699422 -5.73297,0 0,-0.699422 1.20392,0 0,-6.489722 q 0,-0.653558 -0.22932,-0.928741 -0.22932,-0.286648 -0.73382,-0.286648 -0.84848,0 -1.57083,1.009003 -0.71089,1.009002 -0.71089,2.304653 l 0,4.391455 1.18099,0 0,0.699422 -5.8247,0 0,-0.699422 z"
         style="font-style:normal;font-variant:normal;font-weight:normal;font-stretch:normal;font-size:23.48224258px;font-family:'Bodoni Bd BT';-inkscape-font-specification:'Bodoni Bd BT, Normal';text-align:start;writing-mode:lr-tb;text-anchor:start;stroke-width:0.58703583"
         id="path3363" />
    </g>
  </g>
</svg>
