<?xml version="1.0" encoding="UTF-8" standalone="no"?>
<!-- Created with Inkscape (http://www.inkscape.org/) -->

<svg
   xmlns:dc="http://purl.org/dc/elements/1.1/"
   xmlns:cc="http://creativecommons.org/ns#"
   xmlns:rdf="http://www.w3.org/1999/02/22-rdf-syntax-ns#"
   xmlns:svg="http://www.w3.org/2000/svg"
   xmlns="http://www.w3.org/2000/svg"
   xmlns:sodipodi="http://sodipodi.sourceforge.net/DTD/sodipodi-0.dtd"
   xmlns:inkscape="http://www.inkscape.org/namespaces/inkscape"
   width="124.265mm"
   height="124.265mm"
   viewBox="0 0 124.265 124.265"
   version="1.1"
   id="svg8"
   sodipodi:docname="ETTD_Button_DE_60_min.svg"
   inkscape:version="0.91 r13725"
   inkscape:export-filename="C:\Data\techLAB\ET2D_Buttons_Zeitdauer\ETTD_Button_EN_60_min.png"
   inkscape:export-xdpi="96"
   inkscape:export-ydpi="96">
  <defs
     id="defs2" />
  <sodipodi:namedview
     id="base"
     pagecolor="#ffffff"
     bordercolor="#666666"
     borderopacity="1.0"
     inkscape:pageopacity="0.0"
     inkscape:pageshadow="2"
     inkscape:zoom="0.86412741"
     inkscape:cx="-169.90425"
     inkscape:cy="128.8083"
     inkscape:document-units="mm"
     inkscape:current-layer="layer1"
     showgrid="false"
     inkscape:measure-start="0,0"
     inkscape:measure-end="0,0"
     inkscape:window-width="1920"
     inkscape:window-height="1137"
     inkscape:window-x="1072"
     inkscape:window-y="302"
     inkscape:window-maximized="1"
     fit-margin-top="0"
     fit-margin-left="0"
     fit-margin-right="0"
     fit-margin-bottom="0" />
  <metadata
     id="metadata5">
    <rdf:RDF>
      <cc:Work
         rdf:about="">
        <dc:format>image/svg+xml</dc:format>
        <dc:type
           rdf:resource="http://purl.org/dc/dcmitype/StillImage" />
        <dc:title />
      </cc:Work>
    </rdf:RDF>
  </metadata>
  <g
     inkscape:label="Ebene 1"
     inkscape:groupmode="layer"
     id="layer1"
     transform="translate(-39.165123,-38.849037)">
    <flowRoot
       xml:space="preserve"
       id="flowRoot823"
       style="font-style:normal;font-weight:normal;font-size:40px;line-height:1.25;font-family:sans-serif;letter-spacing:0px;word-spacing:0px;fill:#000000;fill-opacity:1;stroke:none"><flowRegion
         id="flowRegion825"><rect
           id="rect827"
           width="454.28571"
           height="705.71429"
           x="265.71429"
           y="259.66254" /></flowRegion><flowPara
         id="flowPara829" /></flowRoot>    <path
       inkscape:connector-curvature="0"
       id="path4160"
       style="font-style:normal;font-variant:normal;font-weight:normal;font-stretch:normal;font-size:348.84527588px;line-height:1.25;font-family:'Bodoni Bd BT';-inkscape-font-specification:'Bodoni Bd BT, Normal';text-align:start;letter-spacing:0px;word-spacing:0px;writing-mode:lr-tb;text-anchor:start;fill:#000000;fill-opacity:1;stroke:none"
       d="m 71.385759,110.24823 q 0.450984,-2.94021 1.576178,-5.29273 1.145393,-2.34953 2.88307,-3.9813 1.926689,-1.786592 4.061543,-2.506057 2.137902,-0.739332 4.420325,-0.400662 1.131114,0.167836 2.141819,0.581945 1.030904,0.417106 1.958552,1.103349 1.820993,1.326755 3.099762,3.629615 1.185003,2.10608 1.585749,4.74598 0.403793,2.62004 -0.03805,5.50064 -0.432701,2.82101 -1.576962,5.02848 -1.144261,2.20746 -3.123535,4.06753 -1.877151,1.73298 -4.021146,2.51205 -2.123798,0.78206 -4.264833,0.46437 -2.060241,-0.3057 -3.884282,-1.6126 -1.82404,-1.30689 -3.069639,-3.42196 -1.242551,-2.13494 -1.711902,-4.86629 -0.466304,-2.75122 -0.03665,-5.55236 z M 84.140997,99.279322 q -0.646351,-0.09591 -1.169594,-0.05164 -0.523245,0.04427 -0.990072,0.259461 -0.860872,0.359904 -1.32535,1.367854 -0.302542,0.62562 -0.57496,1.45889 -0.269372,0.8134 -0.43392,1.88618 -0.429306,2.39483 -0.759186,4.27613 -0.329881,1.8813 -0.662025,4.04672 l -0.149312,0.97344 q -1.090895,7.11212 -0.556073,8.87791 0.534823,1.76578 2.756652,2.09546 2.242027,0.33268 3.308977,-1.23607 0.534997,-0.79431 1.084361,-3.02909 0.549365,-2.23478 1.143567,-6.1087 l 0.07923,-0.51653 q 0.329097,-2.14555 0.552675,-3.73785 0.226623,-1.61216 0.438012,-3.12499 0.167596,-1.09265 0.241076,-1.97575 0.09368,-0.88011 0.09211,-1.40863 -0.01654,-1.91238 -0.73994,-2.85277 -0.720353,-0.960262 -2.336228,-1.200028 z" />
    <path
       inkscape:connector-curvature="0"
       id="path4162"
       style="font-style:normal;font-variant:normal;font-weight:normal;font-stretch:normal;font-size:246.87535095px;line-height:1.25;font-family:Alef;-inkscape-font-specification:'Alef, Normal';text-align:start;letter-spacing:0px;word-spacing:0px;writing-mode:lr-tb;text-anchor:start;fill:#000000;fill-opacity:1;stroke:none"
       d="M 95.054586,127.37357 96.4412,118.3335 q 0.332098,-2.16512 0.400243,-3.27658 0.07437,-0.8661 -0.05034,-2.14997 l 2.424054,-0.17235 q 0.142203,0.88386 0.135795,1.68814 0.01189,0.30373 -0.09211,1.55366 l 0.30018,0.0446 q 0.948968,-1.32587 2.174708,-1.97799 1.33091,-0.76592 2.8461,-0.54109 0.85766,0.12726 1.6107,0.55534 0.75519,0.41401 1.21428,1.04292 0.69401,0.90822 0.79986,2.50563 l 0.17153,0.0255 q 1.10781,-1.50361 2.39935,-2.20348 1.39456,-0.79962 2.93834,-0.57055 1.87255,0.27785 2.71573,1.45265 0.74041,0.98699 0.82821,2.79742 0.061,1.31756 -0.29045,3.60921 l -1.18606,7.73257 -2.45862,-0.36482 1.28957,-8.4074 q 0.17036,-1.11068 0.15169,-1.84679 -0.0298,-1.14037 -0.44947,-1.83533 -0.52895,-0.84059 -1.68678,-1.01239 -1.31508,-0.19513 -2.6198,0.87664 -0.78613,0.64545 -1.95463,2.06816 -0.008,0.24325 -0.0792,0.7072 l -1.2982,8.46364 -2.45862,-0.36481 1.28957,-8.40741 q 0.27387,-1.78552 0.0632,-2.79457 -0.36099,-1.64965 -2.03343,-1.89781 -1.28648,-0.19089 -2.6384,0.90264 -0.78397,0.63139 -2.002624,2.19044 l -1.382302,9.01196 -2.458618,-0.36482 z" />
    <path
       inkscape:connector-curvature="0"
       id="path4164"
       style="font-style:normal;font-variant:normal;font-weight:normal;font-stretch:normal;font-size:246.87535095px;line-height:1.25;font-family:NSimSun;-inkscape-font-specification:'NSimSun, Normal';text-align:start;letter-spacing:0px;word-spacing:0px;writing-mode:lr-tb;text-anchor:start;fill:#000000;fill-opacity:1;stroke:none"
       d="m 125.78585,120.31514 q 0.069,-0.44989 -0.1252,-0.70878 -0.17695,-0.37135 -0.74872,-0.45619 l -2.40144,-0.35633 0.10351,-0.67485 1.14354,0.16968 q 1.02919,0.15272 1.96128,0.17599 0.94934,-0.0892 1.81882,-0.42032 l 0.22871,0.0339 -1.81144,11.80974 q -0.069,0.44989 0.1252,0.70878 0.30856,0.27585 0.76598,0.34372 l 2.40144,0.35633 -0.10351,0.67484 -8.46222,-1.25564 0.10351,-0.67484 2.40144,0.35633 q 0.57177,0.0848 0.83498,-0.10617 0.26322,-0.19101 0.33222,-0.6409 l 1.4319,-9.33532 z m 1.71729,-2.04586 0,0 z m 0.50869,-6.36639 q 0.57177,0.0848 0.96018,0.60261 0.40566,0.40529 0.3194,0.96766 -0.0863,0.56237 -0.61268,0.94439 -0.52643,0.38202 -1.0982,0.29718 -0.57177,-0.0848 -0.96018,-0.60261 -0.38841,-0.51776 -0.30215,-1.08013 0.0863,-0.56237 0.59543,-0.83192 0.52642,-0.38202 1.0982,-0.29718 z" />
    <path
       inkscape:connector-curvature="0"
       id="path4166"
       style="font-style:normal;font-variant:normal;font-weight:normal;font-stretch:normal;font-size:246.87535095px;line-height:1.25;font-family:'Bodoni Bd BT';-inkscape-font-specification:'Bodoni Bd BT, Normal';text-align:start;letter-spacing:0px;word-spacing:0px;writing-mode:lr-tb;text-anchor:start;fill:#000000;fill-opacity:1;stroke:none"
       d="m 132.76584,132.0921 1.7582,0.26088 1.4664,-9.56026 -1.94402,-0.28846 0.13801,-0.89979 3.02257,0.40536 q 0.72901,0.10817 1.33368,0.16913 0.62112,0.049 1.62037,0.11102 l -0.43777,2.85402 q 1.0555,-1.3532 2.29042,-1.87454 1.23492,-0.52134 2.80728,-0.28803 1.88685,0.27998 2.49726,1.1614 0.62469,0.88355 0.23868,3.40015 l -1.01138,6.59377 1.70102,0.2524 -0.13155,0.85761 -7.14714,-1.0605 0.13154,-0.85761 1.5009,0.2227 1.22057,-7.95751 q 0.12292,-0.80138 -0.11121,-1.18122 -0.23198,-0.3939 -0.86093,-0.48722 -1.05777,-0.15696 -2.14808,0.94663 -1.07602,1.10571 -1.3197,2.6944 l -0.82593,5.38468 1.47231,0.21846 -0.13155,0.85761 -7.2615,-1.07747 0.13155,-0.85761 z" />
    <circle
       style="fill:none;stroke:#000000;stroke-width:2.2650001;stroke-linejoin:round;stroke-miterlimit:4;stroke-dasharray:none"
       id="path899"
       cx="101.29762"
       cy="100.98154"
       r="61"
       inkscape:export-xdpi="96"
       inkscape:export-ydpi="96" />
    <g
       transform="matrix(0.79176739,0.201894,-0.30239188,1.1858898,1.9581999e-6,2.6703651e-7)"
       style="font-style:normal;font-weight:normal;font-size:23.48142433px;line-height:1.25;font-family:sans-serif;letter-spacing:0px;word-spacing:0px;fill:#000000;fill-opacity:1;stroke:none;stroke-width:0.58703583"
       id="text833">
      <path
         inkscape:connector-curvature="0"
         d="m 105.03734,44.383953 0,-7.372599 q 0,-1.765754 -0.0803,-2.660097 -0.0459,-0.699423 -0.29812,-1.708425 l 1.88042,-0.42424 q 0.21785,0.687956 0.30958,1.330049 0.0459,0.240785 0.11466,1.249787 l 0.24078,0 q 0.58476,-1.169525 1.46764,-1.83455 0.95167,-0.768218 2.16706,-0.768218 0.68796,0 1.33005,0.252251 0.6421,0.240785 1.0778,0.687956 0.65356,0.642093 0.92874,1.903346 l 0.13759,0 q 0.68796,-1.330049 1.6167,-2.040937 0.99754,-0.802616 2.23586,-0.802616 1.50204,0 2.30465,0.837014 0.69942,0.699422 0.98607,2.132664 0.20639,1.043401 0.20639,2.912349 l 0,6.306266 -1.97214,0 0,-6.856631 q 0,-0.905809 -0.10319,-1.490572 -0.16053,-0.905809 -0.5733,-1.410311 -0.51597,-0.607695 -1.44471,-0.607695 -1.05487,0 -1.94921,1.009003 -0.5389,0.607695 -1.28418,1.880414 0.0229,0.194921 0.0229,0.573297 l 0,6.902495 -1.97214,0 0,-6.856631 q 0,-1.456175 -0.28665,-2.235858 -0.48157,-1.27272 -1.82309,-1.27272 -1.03193,0 -1.96067,1.031935 -0.5389,0.596229 -1.30712,1.983607 l 0,7.349667 -1.97214,0 z"
         style="font-style:normal;font-variant:normal;font-weight:normal;font-stretch:normal;font-size:23.48224258px;font-family:Alef;-inkscape-font-specification:'Alef, Normal';text-align:start;writing-mode:lr-tb;text-anchor:start;stroke-width:0.58703583"
         id="path3353" />
      <path
         inkscape:connector-curvature="0"
         d="m 130.05602,43.019506 q -0.68796,0.825548 -1.52497,1.21539 -0.83702,0.378376 -1.99508,0.378376 -1.18099,0 -1.82308,-0.584763 -0.64209,-0.596229 -0.64209,-1.708425 0,-1.479106 1.5823,-2.373449 1.59376,-0.894343 4.33412,-0.894343 l 0,-2.224393 q 0,-0.756752 -0.33251,-1.009002 -0.32105,-0.263717 -1.23832,-0.263717 -0.5733,0 -0.89435,0.137592 -0.30958,0.137591 -0.30958,0.401307 0,0.05733 0.20639,0.458638 0.21785,0.401308 0.21785,0.768218 0,0.642092 -0.41277,1.020468 -0.41277,0.355444 -1.15806,0.355444 -0.66502,0 -1.03193,-0.36691 -0.35545,-0.378376 -0.35545,-1.066332 0,-1.089264 1.13513,-1.708425 0.5733,-0.30958 1.35298,-0.458637 0.77968,-0.149058 1.85748,-0.149058 0.90581,0 1.63963,0.126126 0.74529,0.126125 1.26125,0.401308 0.51597,0.263716 0.73383,0.67649 0.21785,0.401308 0.21785,1.444708 l 0,4.746899 q 0,0.401308 0.17199,0.607695 0.18345,0.183455 0.56183,0.183455 0.13759,0 0.32104,-0.103194 0.18346,-0.103193 0.26372,-0.103193 0.0688,0 0.14906,0.0688 0.0803,0.0688 0.0803,0.171989 0,0.435705 -0.67649,0.940207 -0.66503,0.504501 -1.52497,0.504501 -0.76822,0 -1.34152,-0.412774 -0.56183,-0.42424 -0.82554,-1.180992 z m -0.0688,-3.336588 -0.27518,0 q -1.41031,0 -1.99507,0.412774 -0.5733,0.401308 -0.5733,1.375913 0,0.997536 0.29811,1.433242 0.32105,0.42424 0.99754,0.42424 0.68796,0 1.1122,-0.458638 0.4357,-0.458637 0.4357,-1.215389 l 0,-1.972142 z"
         style="font-style:normal;font-variant:normal;font-weight:normal;font-stretch:normal;font-size:23.48224258px;font-family:'Bodoni Bd BT';-inkscape-font-specification:'Bodoni Bd BT, Normal';text-align:start;writing-mode:lr-tb;text-anchor:start;stroke-width:0.58703583"
         id="path3355" />
      <path
         inkscape:connector-curvature="0"
         d="m 146.03954,44.383953 -2.1556,0 0,-1.307117 q -0.5045,0.42424 -0.87141,0.699422 -0.36691,0.275183 -0.85995,0.504502 -0.45863,0.217852 -0.95167,0.332512 -0.49304,0.126125 -1.14659,0.126125 -1.0434,0 -1.93775,-0.435705 -0.88287,-0.435706 -1.50204,-1.27272 -0.63062,-0.848479 -0.9746,-2.086801 -0.34398,-1.249787 -0.34398,-2.866484 0,-1.685493 0.43571,-2.912349 0.4357,-1.238321 1.20392,-2.155596 0.69942,-0.837014 1.68549,-1.307117 0.99754,-0.48157 2.0868,-0.48157 0.96314,0 1.67403,0.217853 0.71089,0.206387 1.50204,0.653559 l 0,-5.549515 2.1556,0 0,17.841001 z m -2.1556,-3.118735 0,-7.384065 q -0.80262,-0.389842 -1.44471,-0.538899 -0.63063,-0.149057 -1.37591,-0.149057 -1.66256,0 -2.60277,1.249787 -0.94021,1.238322 -0.94021,3.588839 0,2.25879 0.72236,3.462714 0.72235,1.192457 2.31612,1.192457 0.84848,0 1.70842,-0.378376 0.85995,-0.389842 1.6167,-1.0434 z"
         style="font-style:normal;font-variant:normal;font-weight:normal;font-stretch:normal;font-size:23.48224258px;font-family:Tahoma;-inkscape-font-specification:'Tahoma, Normal';text-align:start;writing-mode:lr-tb;text-anchor:start;stroke-width:0.58703583"
         id="path3357" />
      <path
         inkscape:connector-curvature="0"
         d="m 154.43742,35.840116 4.6681,0 0,-2.669949 q 0,-1.102431 -0.56844,-1.601969 -0.55121,-0.516765 -1.77422,-0.516765 -1.17133,0 -1.757,0.53399 -0.56844,0.516764 -0.56844,1.584744 l 0,2.669949 z m 8.61274,3.892958 0.80959,0.275608 q -0.87849,2.411567 -2.58382,3.600125 -1.68809,1.171332 -4.35804,1.171332 -3.68626,0 -5.87389,-1.946479 -2.17041,-1.946479 -2.17041,-5.184869 0,-3.221164 2.25654,-5.322672 2.27376,-2.118734 5.71886,-2.118734 3.13503,0 4.97816,1.756999 1.86035,1.739773 1.86035,4.771457 l 0,0.172255 -9.25008,0 0,3.462321 q 0,1.998155 0.62012,2.756076 0.63734,0.757921 2.20486,0.757921 2.11873,0 3.56567,-1.033528 1.44694,-1.033529 2.22209,-3.117812 z"
         style="font-style:normal;font-variant:normal;font-weight:normal;font-stretch:normal;font-size:35.27777863px;font-family:'Bodoni Bd BT';-inkscape-font-specification:'Bodoni Bd BT, Normal';text-align:start;writing-mode:lr-tb;text-anchor:start;stroke-width:0.58703583"
         id="path3359" />
      <path
         inkscape:connector-curvature="0"
         d="m 180.10223,33.330788 q 0,0.298115 -0.11466,0.561831 -0.10319,0.263717 -0.29811,0.458638 -0.18346,0.194921 -0.43571,0.30958 -0.25225,0.114659 -0.55036,0.114659 -0.29812,0 -0.56183,-0.103193 -0.25225,-0.114659 -0.44717,-0.298114 -0.19492,-0.194921 -0.30958,-0.458638 -0.11466,-0.275183 -0.11466,-0.584763 0,-0.298114 0.11466,-0.550365 0.11466,-0.263717 0.30958,-0.447172 0.19492,-0.183455 0.44717,-0.286648 0.26371,-0.103193 0.56183,-0.103193 0.27518,0 0.52743,0.114659 0.26372,0.103193 0.44717,0.298114 0.19492,0.183455 0.30958,0.435706 0.11466,0.252251 0.11466,0.538899 z m -3.57737,11.053165 0,-0.687956 q 0.30958,0 0.49304,-0.04586 0.19492,-0.05733 0.29811,-0.183455 0.10319,-0.137591 0.13759,-0.378376 0.0459,-0.240785 0.0459,-0.619161 l 0,-3.588839 q 0,-0.687956 -0.1032,-0.928741 -0.10319,-0.240784 -0.37837,-0.240784 -0.14906,0 -0.36691,0.0344 -0.21786,0.0344 -0.37838,0.09173 l -0.20639,-0.642093 3.21047,-0.963138 0.68795,0 0,6.248936 q 0,0.378376 0.0459,0.619161 0.0459,0.229319 0.14905,0.36691 0.11466,0.137591 0.29812,0.183455 0.18345,0.04586 0.45863,0.04586 l 0,0.687956 -4.39145,0 z"
         style="font-style:normal;font-variant:normal;font-weight:bold;font-stretch:normal;font-size:23.48224258px;font-family:Scheherazade;-inkscape-font-specification:'Scheherazade Bold';text-align:start;writing-mode:lr-tb;text-anchor:start;stroke-width:0.58703583"
         id="path3361" />
      <path
         inkscape:connector-curvature="0"
         d="m 181.56987,43.684531 1.41031,0 0,-7.796839 -1.55936,0 0,-0.73382 2.41931,-0.0344 q 0.58476,0 1.06633,-0.02293 0.49304,-0.0344 1.28419,-0.103194 l 0,2.327586 q 0.66502,-1.203924 1.57083,-1.765755 0.90581,-0.561831 2.16706,-0.561831 1.51351,0 2.09827,0.630627 0.59623,0.630627 0.59623,2.68303 l 0,5.377525 1.36445,0 0,0.699422 -5.73297,0 0,-0.699422 1.20392,0 0,-6.489722 q 0,-0.653558 -0.22932,-0.928741 -0.22932,-0.286648 -0.73382,-0.286648 -0.84848,0 -1.57083,1.009003 -0.71089,1.009002 -0.71089,2.304653 l 0,4.391455 1.18099,0 0,0.699422 -5.8247,0 0,-0.699422 z"
         style="font-style:normal;font-variant:normal;font-weight:normal;font-stretch:normal;font-size:23.48224258px;font-family:'Bodoni Bd BT';-inkscape-font-specification:'Bodoni Bd BT, Normal';text-align:start;writing-mode:lr-tb;text-anchor:start;stroke-width:0.58703583"
         id="path3363" />
    </g>
    <text
       xml:space="preserve"
       style="font-style:normal;font-weight:normal;font-size:46.18971634px;line-height:125%;font-family:sans-serif;letter-spacing:0px;word-spacing:0px;fill:#000000;fill-opacity:1;stroke:none;stroke-width:1px;stroke-linecap:butt;stroke-linejoin:miter;stroke-opacity:1"
       x="62.649971"
       y="109.27785"
       id="text3356"
       sodipodi:linespacing="125%"
       transform="matrix(0.9856062,0.16905743,-0.16905743,0.9856062,0,0)"><tspan
         sodipodi:role="line"
         id="tspan3358"
         x="62.649971"
         y="109.27785"
         style="font-style:normal;font-variant:normal;font-weight:normal;font-stretch:normal;font-family:Alef;-inkscape-font-specification:Alef">6</tspan></text>
  </g>
</svg>
