<?xml version="1.0" encoding="UTF-8" standalone="no"?>
<!-- Created with Inkscape (http://www.inkscape.org/) -->

<svg
   width="210mm"
   height="297mm"
   viewBox="0 0 210 297"
   version="1.1"
   id="svg5"
   inkscape:version="1.2.2 (732a01da63, 2022-12-09)"
   sodipodi:docname="ET2D_VC_Sticker.svg"
   xml:space="preserve"
   xmlns:inkscape="http://www.inkscape.org/namespaces/inkscape"
   xmlns:sodipodi="http://sodipodi.sourceforge.net/DTD/sodipodi-0.dtd"
   xmlns="http://www.w3.org/2000/svg"
   xmlns:svg="http://www.w3.org/2000/svg"><sodipodi:namedview
     id="namedview7"
     pagecolor="#ffffff"
     bordercolor="#666666"
     borderopacity="1.0"
     inkscape:showpageshadow="2"
     inkscape:pageopacity="0.0"
     inkscape:pagecheckerboard="0"
     inkscape:deskcolor="#d1d1d1"
     inkscape:document-units="mm"
     showgrid="false"
     inkscape:zoom="0.592"
     inkscape:cx="92.905406"
     inkscape:cy="574.32433"
     inkscape:window-width="1920"
     inkscape:window-height="1017"
     inkscape:window-x="-8"
     inkscape:window-y="348"
     inkscape:window-maximized="1"
     inkscape:current-layer="layer4"
     showguides="true" /><defs
     id="defs2" /><g
     inkscape:label="Ebene 1"
     inkscape:groupmode="layer"
     id="layer1"><rect
       style="fill:none;stroke:#ff0000;stroke-width:0.1;stroke-dasharray:none"
       id="rect108"
       width="50"
       height="50"
       x="23.240427"
       y="16.536459"
       rx="10"
       ry="10" /><text
       xml:space="preserve"
       style="font-style:normal;font-variant:normal;font-weight:normal;font-stretch:normal;font-size:11.7123px;line-height:1.25;font-family:'Bauhaus 93';-inkscape-font-specification:'Bauhaus 93, ';fill:#000000;fill-opacity:1;stroke:none;stroke-width:0.292808"
       x="28.320328"
       y="45.450562"
       id="text324"><tspan
         sodipodi:role="line"
         id="tspan322"
         style="font-style:normal;font-variant:normal;font-weight:normal;font-stretch:normal;font-family:'Bauhaus 93';-inkscape-font-specification:'Bauhaus 93, ';stroke-width:0.292808;stroke:none"
         x="28.320328"
         y="45.450562">techLAB</tspan></text><text
       xml:space="preserve"
       style="font-style:normal;font-variant:normal;font-weight:normal;font-stretch:normal;font-size:11.7123px;line-height:1.25;font-family:'Bauhaus 93';-inkscape-font-specification:'Bauhaus 93, ';letter-spacing:0px;fill:#000000;fill-opacity:1;stroke:none;stroke-width:0.292808"
       x="61.476597"
       y="58.019009"
       id="text324-9"><tspan
         sodipodi:role="line"
         id="tspan322-8"
         style="font-style:normal;font-variant:normal;font-weight:normal;font-stretch:normal;font-family:'Bauhaus 93';-inkscape-font-specification:'Bauhaus 93, ';stroke:none;stroke-width:0.292808"
         x="61.476597"
         y="58.019009"
         dx="-0.02">s!</tspan></text><text
       xml:space="preserve"
       style="font-style:normal;font-variant:normal;font-weight:normal;font-stretch:normal;font-size:11.7123px;line-height:1.25;font-family:'Bauhaus 93';-inkscape-font-specification:'Bauhaus 93, ';letter-spacing:0px;fill:#000000;fill-opacity:1;stroke:none;stroke-width:0.292808"
       x="37.664074"
       y="58.019009"
       id="text5148"><tspan
         sodipodi:role="line"
         id="tspan5146"
         style="font-style:normal;font-variant:normal;font-weight:normal;font-stretch:normal;font-family:'Bauhaus 93';-inkscape-font-specification:'Bauhaus 93, ';stroke:none;stroke-width:0.292808"
         x="37.664074"
         y="58.019009"
         dx="0 0 0 0 0">rock </tspan></text></g><g
     inkscape:groupmode="layer"
     id="layer2"
     inkscape:label="Deko"
     style="display:inline"><path
       id="path428"
       style="fill:none;stroke:#ff0000;stroke-width:0.137361"
       inkscape:transform-center-x="-17.193434"
       inkscape:transform-center-y="14.547608"
       transform="matrix(0.72801067,0,0,0.72801067,7.1904037,15.688707)"
       d="m 32.87025,50.811668 1.928351,2.726768 3.339458,-0.04268 -1.997416,2.676589 1.072549,3.162818 -3.162823,-1.072544 -2.676589,1.997416 0.04268,-3.339458 -2.726768,-1.928351 3.189204,-0.991354 0.991354,-3.189204"
       sodipodi:nodetypes="ccccccccccc" /><path
       sodipodi:type="star"
       style="fill:none;stroke:#ff0000;stroke-width:0.0768973"
       id="path484"
       inkscape:flatsided="false"
       sodipodi:sides="4"
       sodipodi:cx="57.359112"
       sodipodi:cy="55.304928"
       sodipodi:r1="5.5282345"
       sodipodi:r2="2.764117"
       sodipodi:arg1="0.5404195"
       sodipodi:arg2="1.3258177"
       inkscape:rounded="0.7"
       inkscape:randomized="0"
       d="m 62.099534,58.149181 c -1.466978,2.444963 -1.303866,-0.854206 -4.070025,-0.162666 -2.76616,0.69154 -1.069688,3.525813 -3.51465,2.058835 -2.444963,-1.466978 0.854205,-1.303866 0.162665,-4.070025 -0.69154,-2.76616 -3.525812,-1.069688 -2.058834,-3.51465 1.466978,-2.444963 1.303865,0.854205 4.070025,0.162665 2.76616,-0.691539 1.069687,-3.525812 3.51465,-2.058834 2.444963,1.466978 -0.854206,1.303865 -0.162666,4.070025 0.69154,2.76616 3.525812,1.069687 2.058835,3.51465 z"
       inkscape:transform-center-x="0.53120319"
       inkscape:transform-center-y="0.065059248"
       transform="matrix(1.2596444,0.32315711,-0.32315711,1.2596444,3.3933098,-60.958788)" /><path
       id="path510"
       style="fill:none;stroke:#ff0000;stroke-width:0.125356"
       inkscape:transform-center-x="0.043732082"
       inkscape:transform-center-y="0.57982145"
       transform="matrix(0.79773031,0,0,0.79773031,-6.896109,-17.146589)"
       d="m 52.078724,48.505202 2.678469,4.027385 3.008675,-2.588014 -0.953827,4.741754 3.957457,0.297453 -4.027384,2.678469 2.588014,3.008675 -4.741755,-0.953827 -0.297452,3.957457 -2.678469,-4.027384 -3.008676,2.588014 0.953827,-4.741755 -3.957457,-0.297452 4.027385,-2.678469 -2.588014,-3.008676 4.741754,0.953827 0.297453,-3.957457"
       sodipodi:nodetypes="ccccccccccccccccc" /><g
       aria-label="techLAB"
       id="text324-0"
       style="font-size:11.7123px;line-height:1.25;font-family:'Bauhaus 93';-inkscape-font-specification:'Bauhaus 93, ';stroke-width:0.292808" /><g
       aria-label="s!"
       id="text324-9-7"
       style="font-size:11.7123px;line-height:1.25;font-family:'Bauhaus 93';-inkscape-font-specification:'Bauhaus 93, ';letter-spacing:0px;stroke-width:0.292808" /><g
       aria-label="rock "
       id="text5148-7"
       style="font-size:11.7123px;line-height:1.25;font-family:'Bauhaus 93';-inkscape-font-specification:'Bauhaus 93, ';letter-spacing:0px;stroke-width:0.292808" /></g><g
     inkscape:groupmode="layer"
     id="layer3"
     inkscape:label="Positiv"><path
       id="path9447"
       style="display:inline;fill:#000000;stroke:none;stroke-width:0.1"
       d="m 121.37315,20.80915 c 0.92906,0.05577 0.90932,2.368277 3.69022,2.385385 3.70784,0.02281 2.48647,-4.095768 5.09219,-1.457793 2.60572,2.637976 -1.49699,1.366259 -1.5198,5.074109 -0.0228,3.707851 4.09525,2.486995 1.45727,5.092713 -2.63797,2.605717 -1.36626,-1.497511 -5.07411,-1.520321 -3.70784,-0.02281 -2.487,4.095768 -5.09271,1.457792 -2.60572,-2.637975 1.49751,-1.366259 1.52032,-5.074109 0.0228,-3.70785 -4.09577,-2.486996 -1.45779,-5.092712 0.65949,-0.651429 1.07473,-0.883653 1.38441,-0.865064 z m -19.45669,0.285771 2.13682,3.212724 2.39985,-2.06499 -0.76067,3.782715 3.15691,0.237711 -3.21273,2.136304 2.06448,2.40037 -3.78272,-0.761194 -0.23719,3.15743 -2.13682,-3.21324 -2.399859,2.06499 0.76068,-3.782715 -3.15691,-0.237195 3.21272,-2.13682 -2.06447,-2.40037 3.782709,0.761193 z m 24.44502,15.901872 c 0.91502,0 1.59192,0.242371 2.03037,0.726571 0.43844,0.480386 0.65784,1.22383 0.65784,2.230354 v 5.044142 h -2.32234 v -4.889629 c 0,-0.305008 -0.0361,-0.516913 -0.10852,-0.635103 -0.0724,-0.118191 -0.2018,-0.177251 -0.38861,-0.177251 -0.3622,0 -0.54364,0.270965 -0.54364,0.812354 v 0.972034 h 0.66921 v 2.058785 h -0.66921 v 1.85881 h -2.32182 v -4.964043 c 0,-0.960774 0.26109,-1.706089 0.78342,-2.236039 0.52613,-0.533763 1.26396,-0.800985 2.2133,-0.800985 z m -30.384189,0.19482 h 2.13888 v 2.184363 h 0.96067 v 2.259293 h -0.96067 c 0,0.453701 0.0703,0.766361 0.21136,0.937931 0.14488,0.17156 0.40784,0.25735 0.7891,0.25735 v 2.2474 c -0.11057,0.004 -0.1926,0.006 -0.24598,0.006 -0.4842,0 -0.94171,-0.1125 -1.37253,-0.33744 -0.42701,-0.22495 -0.77014,-0.53012 -1.02939,-0.91519 -0.32789,-0.49183 -0.49144,-1.14387 -0.49144,-1.95596 z m 17.196359,0 h 2.13889 v 2.384867 c 0.3622,-0.263069 0.72456,-0.394808 1.08676,-0.394808 0.54901,0 0.98353,0.198286 1.30379,0.594796 0.32407,0.39651 0.48628,0.932308 0.48628,1.607137 v 3.614255 h -2.13889 v -3.01377 c 0,-0.244011 -0.0267,-0.408088 -0.0801,-0.491964 -0.0495,-0.08388 -0.14893,-0.126091 -0.29766,-0.126091 -0.24019,0 -0.36018,0.177696 -0.36018,0.532265 v 3.09956 h -2.13889 z m 6.26215,0 h 2.32182 v 4.63796 c 0,0.362197 0.0572,0.604047 0.17157,0.726057 0.11819,0.11819 0.34933,0.17725 0.69246,0.17725 h 0.11989 v 2.26498 h -0.61753 c -0.8464,0 -1.50593,-0.24612 -1.97869,-0.73794 -0.47276,-0.49564 -0.70952,-1.1819 -0.70952,-2.05879 z m 11.02052,0 h 2.83652 c 1.68136,0 2.52232,0.661404 2.52232,1.984375 0,0.655766 -0.28832,1.200924 -0.86403,1.635559 0.83496,0.362196 1.25264,1.008627 1.25264,1.938903 0,0.71295 -0.24612,1.28057 -0.73794,1.70377 -0.24019,0.20207 -0.49753,0.34317 -0.77204,0.42323 -0.27451,0.0801 -0.64436,0.12041 -1.1095,0.12041 h -0.44028 v -2.00763 h 0.39481 c 0.23256,0 0.39664,-0.0286 0.49196,-0.0858 0.0953,-0.061 0.14262,-0.16551 0.14262,-0.3142 0,-0.25163 -0.19403,-0.37775 -0.58291,-0.37775 h -0.44648 v -2.08153 c 0.42701,0 0.64079,-0.146713 0.64079,-0.440283 0,-0.270693 -0.19267,-0.406176 -0.57774,-0.406176 h -0.42892 v 5.713349 h -2.32182 z m -27.62777,1.978691 c 0.82733,0 1.52107,0.282196 2.08152,0.84646 0.56427,0.560451 0.84646,1.252321 0.84646,2.075846 0,0.0839 -0.007,0.21748 -0.0227,0.40049 h -5.2e-4 -3.24218 c -0.0495,-0.16394 -0.0744,-0.31492 -0.0744,-0.45217 0,-0.19063 0.0342,-0.377169 0.10283,-0.560173 h 1.08676 c -0.0763,-0.423198 -0.31488,-0.635103 -0.7152,-0.635103 -0.26688,0 -0.48388,0.114375 -0.65164,0.343131 -0.16776,0.224943 -0.25167,0.515143 -0.25167,0.869715 0,0.36982 0.0802,0.66886 0.2403,0.89762 0.16394,0.22876 0.3772,0.34313 0.64027,0.34313 0.2135,0 0.41928,-0.10689 0.61753,-0.32039 l 1.21853,1.46399 c -0.56808,0.44607 -1.19953,0.66921 -1.89342,0.66921 -0.84639,0 -1.55699,-0.28407 -2.13269,-0.85214 -0.5757,-0.56808 -0.864029,-1.27118 -0.864029,-2.10995 0,-0.834962 0.290199,-1.540452 0.869719,-2.116153 0.58332,-0.575702 1.29818,-0.863513 2.14457,-0.863513 z m 6.45645,0.0057 c 0.71295,0 1.34202,0.225009 1.88722,0.674894 0.5452,0.449886 0.88458,1.023638 1.01803,1.721342 l -2.16783,0.0801 c -0.18681,-0.244007 -0.42305,-0.365869 -0.709,-0.365869 -0.244,0 -0.44416,0.07965 -0.60048,0.239778 -0.15632,0.160129 -0.23461,0.362161 -0.23461,0.606161 0,0.24782 0.082,0.45598 0.24598,0.62374 0.16776,0.16775 0.37592,0.25166 0.62374,0.25166 0.3622,0 0.61954,-0.2119 0.77204,-0.6351 l 2.12132,-0.0801 c -0.061,0.82352 -0.36752,1.50042 -0.92036,2.03037 -0.55282,0.52995 -1.22598,0.79478 -2.019,0.79478 -0.83876,0 -1.548,-0.29156 -2.12751,-0.87488 -0.5757,-0.58333 -0.86352,-1.29818 -0.86352,-2.14457 0,-0.804463 0.29156,-1.492589 0.87488,-2.064478 0.58333,-0.571889 1.2832,-0.857829 2.0991,-0.857828 z m 13.12375,10.583846 h 2.13889 v 7.80625 h -2.13889 z m 12.02304,0 h 2.19056 l -0.0403,4.84415 h -2.02985 z m -26.40046,1.98438 c 0.16775,0 0.38527,0.0211 0.65216,0.063 v 2.28772 c -0.1487,-0.0839 -0.28417,-0.12609 -0.40618,-0.12609 -0.38888,0 -0.58291,0.29768 -0.58291,0.89245 v 2.70474 h -2.13889 v -3.1166 c 0,-0.82352 0.22449,-1.47931 0.67438,-1.96733 0.44989,-0.49182 1.05036,-0.73794 1.80144,-0.73794 z m 3.98632,0 c 0.80827,0 1.50014,0.29207 2.07584,0.8754 0.57952,0.57951 0.8692,1.27513 0.8692,2.08721 0,0.82352 -0.29343,1.52475 -0.88057,2.10426 -0.58333,0.57952 -1.28881,0.86972 -2.11615,0.86972 -0.82733,0 -1.53417,-0.2902 -2.12131,-0.86972 -0.58714,-0.58332 -0.88109,-1.28455 -0.88109,-2.10426 0,-0.83496 0.29395,-1.5367 0.88109,-2.10478 0.58714,-0.57189 1.31134,-0.85783 2.17299,-0.85783 z m 6.50245,0 c 0.71295,0 1.34202,0.22501 1.88722,0.67489 0.54521,0.44989 0.88459,1.02364 1.01803,1.72134 l -2.16783,0.0801 c -0.18682,-0.244 -0.42306,-0.36586 -0.709,-0.36586 -0.24401,0 -0.44417,0.0802 -0.60048,0.24029 -0.15632,0.16013 -0.23461,0.36216 -0.23461,0.60617 0,0.24781 0.082,0.45546 0.24598,0.62321 0.16775,0.16776 0.37591,0.25167 0.62373,0.25167 0.36219,0 0.61954,-0.21139 0.77205,-0.63459 l 2.12131,-0.0801 c -0.061,0.82352 -0.36753,1.4999 -0.92035,2.02985 -0.55283,0.52995 -1.22597,0.7953 -2.019,0.7953 -0.83877,0 -1.54801,-0.29207 -2.12752,-0.8754 -0.57571,-0.58332 -0.86351,-1.29817 -0.86351,-2.14457 0,-0.80446 0.29155,-1.49258 0.87488,-2.06447 0.58333,-0.57189 1.2832,-0.85783 2.0991,-0.85783 z m 7.07967,0.12041 h 2.22467 l -1.04645,2.07584 1.55546,3.62562 h -2.3673 l -1.33842,-3.72277 z m 6.67608,0.0801 h 0.64647 v 2.25309 c -0.3012,0 -0.50936,0.0572 -0.62374,0.17156 -0.11056,0.11057 -0.18085,0.33183 -0.21135,0.66353 -0.0991,1.10184 -0.52617,1.87949 -1.28106,2.33319 -0.40032,0.23638 -0.96846,0.3545 -1.70429,0.3545 h -0.29714 v -2.26446 h 0.0971 c 0.34313,0 0.58686,-0.0708 0.73174,-0.21187 0.14869,-0.14488 0.23447,-0.39661 0.25735,-0.755 0.0305,-0.58332 0.0839,-0.993 0.1602,-1.22938 0.0801,-0.23638 0.24039,-0.47075 0.48059,-0.70332 0.41938,-0.40794 1.00062,-0.61184 1.74408,-0.61184 z m -33.887859,0.28267 1.40405,1.98489 2.431379,-0.031 -1.45418,1.94872 0.78083,2.3027 -2.302699,-0.78083 -1.94872,1.45417 0.031,-2.43137 -1.98489,-1.40405 2.32182,-0.72141 z m 13.572299,1.62729 c -0.22875,0 -0.4233,0.0839 -0.58343,0.25166 -0.16013,0.16394 -0.23978,0.36597 -0.23978,0.60616 0,0.23639 0.0797,0.43841 0.23978,0.60617 0.16394,0.16775 0.35849,0.25166 0.58343,0.25166 0.22876,0 0.4233,-0.0839 0.58343,-0.25166 0.16394,-0.16776 0.24598,-0.36978 0.24598,-0.60617 0,-0.24019 -0.0802,-0.44222 -0.2403,-0.60616 -0.16013,-0.16775 -0.35654,-0.25166 -0.58911,-0.25166 z m 23.55825,1.14928 c 0.37363,0 0.69378,0.13548 0.96067,0.40618 0.27069,0.27069 0.40617,0.59271 0.40617,0.96635 0,0.37363 -0.13361,0.69242 -0.40049,0.95549 -0.26689,0.25926 -0.5889,0.38861 -0.96635,0.38861 -0.39269,0 -0.71659,-0.12561 -0.97203,-0.37724 -0.25163,-0.25544 -0.37776,-0.57985 -0.37776,-0.97255 0,-0.38126 0.13174,-0.70328 0.39481,-0.96635 0.26307,-0.26688 0.58135,-0.40049 0.95498,-0.40049 z" /><text
       xml:space="preserve"
       style="display:inline;font-style:normal;font-weight:normal;font-size:10.5833px;line-height:1.25;font-family:sans-serif;fill:#ff0000;fill-opacity:1;stroke:none;stroke-width:0.264583"
       x="95.694603"
       y="81.851288"
       id="text9488"><tspan
         sodipodi:role="line"
         id="tspan9486"
         style="font-style:normal;font-variant:normal;font-weight:normal;font-stretch:normal;font-family:'Sofia Pro';-inkscape-font-specification:'Sofia Pro';fill:#ff0000;stroke-width:0.264583"
         x="95.694603"
         y="81.851288">POSITIV</tspan><tspan
         sodipodi:role="line"
         style="font-style:normal;font-variant:normal;font-weight:normal;font-stretch:normal;font-family:'Sofia Pro';-inkscape-font-specification:'Sofia Pro';fill:#ff0000;stroke-width:0.264583"
         x="95.694603"
         y="95.449509"
         id="tspan9490" /></text></g><g
     inkscape:groupmode="layer"
     id="layer4"
     inkscape:label="Negativ"
     style="display:inline"><path
       id="path9377"
       style="display:inline;fill:#000000;stroke:none;stroke-width:0.1"
       d="m 161.5347,16.083857 c -5.54,0 -9.99991,4.459912 -9.99991,9.999907 v 29.999719 c 0,5.539995 4.45991,10.000423 9.99991,10.000423 h 30.00023 c 5.54,0 9.99991,-4.460428 9.99991,-10.000423 V 26.083764 c 0,-5.539995 -4.45991,-9.999907 -9.99991,-9.999907 z m 20.86487,4.725293 c 0.92906,0.05577 0.90932,2.368277 3.69022,2.385385 3.70784,0.02281 2.48647,-4.095768 5.09219,-1.457793 2.60572,2.637976 -1.49699,1.366259 -1.5198,5.074109 -0.0228,3.707851 4.09525,2.486995 1.45727,5.092713 -2.63797,2.605717 -1.36626,-1.497511 -5.07411,-1.520321 -3.70784,-0.02281 -2.487,4.095768 -5.09271,1.457792 -2.60572,-2.637975 1.49751,-1.366259 1.52032,-5.074109 0.0228,-3.70785 -4.09577,-2.486996 -1.45779,-5.092712 0.65949,-0.651429 1.07473,-0.883653 1.38441,-0.865064 z m -19.45669,0.285771 2.13682,3.212724 2.39985,-2.06499 -0.76067,3.782715 3.15691,0.237711 -3.21273,2.136304 2.06448,2.40037 -3.78272,-0.761194 -0.23719,3.15743 -2.13682,-3.21324 -2.39986,2.06499 0.76068,-3.782715 -3.15691,-0.237195 3.21272,-2.13682 -2.06447,-2.40037 3.78271,0.761193 z m 24.44502,15.901872 c 0.91502,0 1.59192,0.242371 2.03037,0.726571 0.43844,0.480386 0.65784,1.22383 0.65784,2.230354 v 5.044137 h -2.32234 v -4.889624 c 0,-0.305008 -0.0361,-0.516913 -0.10852,-0.635103 -0.0724,-0.118191 -0.2018,-0.177251 -0.38861,-0.177251 -0.3622,0 -0.54364,0.270965 -0.54364,0.812354 v 0.972034 h 0.66921 v 2.058789 H 186.713 v 1.858801 h -2.32182 v -4.964038 c 0,-0.960774 0.26109,-1.706089 0.78342,-2.236039 0.52613,-0.533763 1.26396,-0.800985 2.2133,-0.800985 z m -30.38419,0.19482 h 2.13888 v 2.184363 h 0.96067 v 2.259293 h -0.96067 c 0,0.453699 0.0703,0.766361 0.21136,0.937928 0.14488,0.171566 0.40784,0.257348 0.7891,0.257348 v 2.247408 c -0.11057,0.0038 -0.1926,0.0057 -0.24598,0.0057 -0.4842,0 -0.94171,-0.112504 -1.37253,-0.337447 -0.42701,-0.224943 -0.77014,-0.530118 -1.02939,-0.91519 -0.32789,-0.491824 -0.49144,-1.14387 -0.49144,-1.955953 z m 17.19636,0 h 2.13889 v 2.384867 c 0.3622,-0.263069 0.72456,-0.394808 1.08676,-0.394808 0.54901,0 0.98353,0.198286 1.30379,0.594796 0.32407,0.39651 0.48628,0.932308 0.48628,1.607137 v 3.61425 h -2.13889 v -3.01377 c 0,-0.244006 -0.0267,-0.408083 -0.0801,-0.491959 -0.0495,-0.08388 -0.14893,-0.126091 -0.29766,-0.126091 -0.24019,0 -0.36018,0.177696 -0.36018,0.532267 v 3.099553 h -2.13889 z m 6.26215,0 h 2.32182 v 4.63796 c 0,0.362196 0.0572,0.604051 0.17157,0.726054 0.11819,0.11819 0.34933,0.17725 0.69246,0.17725 h 0.11989 v 2.264978 h -0.61753 c -0.8464,0 -1.50593,-0.246115 -1.97869,-0.73794 -0.47276,-0.495637 -0.70952,-1.181892 -0.70952,-2.058789 z m 11.02052,0 h 2.83652 c 1.68136,0 2.52232,0.661404 2.52232,1.984375 0,0.655766 -0.28832,1.200924 -0.86403,1.635559 0.83496,0.362196 1.25264,1.008627 1.25264,1.9389 0,0.712955 -0.24612,1.280574 -0.73794,1.703772 -0.24019,0.202068 -0.49753,0.343166 -0.77204,0.42323 -0.27451,0.08006 -0.64436,0.120406 -1.1095,0.120406 h -0.44028 v -2.00763 h 0.39481 c 0.23256,0 0.39664,-0.0286 0.49196,-0.08578 0.0953,-0.061 0.14262,-0.165501 0.14262,-0.314193 0,-0.251631 -0.19403,-0.377755 -0.58291,-0.377755 h -0.44648 V 40.13097 c 0.42701,0 0.64079,-0.146713 0.64079,-0.440283 0,-0.270693 -0.19267,-0.406176 -0.57774,-0.406176 h -0.42892 v 5.713346 h -2.32182 z m -27.62777,1.978691 c 0.82733,0 1.52107,0.282196 2.08152,0.84646 0.56427,0.560451 0.84646,1.252321 0.84646,2.075842 0,0.08388 -0.007,0.217488 -0.0227,0.400492 h -5.2e-4 -3.24218 c -0.0495,-0.163942 -0.0744,-0.314915 -0.0744,-0.452169 0,-0.190629 0.0342,-0.377168 0.10283,-0.560172 h 1.08676 c -0.0763,-0.423198 -0.31488,-0.635103 -0.7152,-0.635103 -0.26688,0 -0.48388,0.114375 -0.65164,0.343131 -0.16776,0.224943 -0.25167,0.515143 -0.25167,0.869714 0,0.369822 0.0802,0.668864 0.2403,0.89762 0.16394,0.228756 0.3772,0.343132 0.64027,0.343132 0.2135,0 0.41928,-0.106889 0.61753,-0.320394 l 1.21853,1.463993 c -0.56808,0.446074 -1.19953,0.66921 -1.89342,0.66921 -0.84639,0 -1.55699,-0.284068 -2.13269,-0.852145 -0.5757,-0.568076 -0.86403,-1.271178 -0.86403,-2.109948 0,-0.834959 0.2902,-1.540449 0.86972,-2.11615 0.58332,-0.575702 1.29818,-0.863513 2.14457,-0.863513 z m 6.45645,0.0057 c 0.71295,0 1.34202,0.225009 1.88722,0.674894 0.5452,0.449886 0.88458,1.023638 1.01803,1.721342 l -2.16783,0.0801 c -0.18681,-0.244007 -0.42305,-0.365869 -0.709,-0.365869 -0.244,0 -0.44416,0.07965 -0.60048,0.239778 -0.15632,0.160129 -0.23461,0.362159 -0.23461,0.606165 0,0.247818 0.082,0.45598 0.24598,0.623734 0.16776,0.167754 0.37592,0.251664 0.62374,0.251664 0.3622,0 0.61954,-0.211905 0.77204,-0.635103 l 2.12132,-0.0801 c -0.061,0.82352 -0.36752,1.500417 -0.92036,2.030367 -0.55282,0.52995 -1.22598,0.794783 -2.019,0.794783 -0.83876,0 -1.548,-0.291555 -2.12751,-0.874882 -0.5757,-0.583327 -0.86352,-1.298176 -0.86352,-2.144572 0,-0.804458 0.29156,-1.492584 0.87488,-2.064473 0.58333,-0.571889 1.2832,-0.857829 2.0991,-0.857829 z m 13.12375,10.58385 h 2.13889 v 7.806242 h -2.13889 z m 12.02304,0 h 2.19056 l -0.0403,4.844149 h -2.02985 z m -26.40046,1.984375 c 0.16775,0 0.38527,0.0211 0.65216,0.06304 v 2.287716 c -0.1487,-0.08388 -0.28417,-0.12609 -0.40618,-0.12609 -0.38888,0 -0.58291,0.297687 -0.58291,0.892452 v 2.704744 h -2.13889 v -3.116606 c 0,-0.82352 0.22449,-1.479309 0.67438,-1.967321 0.44989,-0.491825 1.05036,-0.73794 1.80144,-0.73794 z m 3.98632,0 c 0.80827,0 1.50014,0.292071 2.07584,0.875399 0.57952,0.579514 0.8692,1.275128 0.8692,2.087211 0,0.82352 -0.29343,1.52475 -0.88057,2.104264 -0.58333,0.579514 -1.28881,0.869715 -2.11615,0.869715 -0.82733,0 -1.53417,-0.290201 -2.12131,-0.869715 -0.58714,-0.583326 -0.88109,-1.284556 -0.88109,-2.104264 0,-0.834958 0.29395,-1.536704 0.88109,-2.104781 0.58714,-0.57189 1.31134,-0.857829 2.17299,-0.857829 z m 6.50245,0 c 0.71295,0 1.34202,0.225008 1.88722,0.674894 0.54521,0.449887 0.88459,1.023638 1.01803,1.721342 l -2.16783,0.0801 c -0.18682,-0.244007 -0.42306,-0.365869 -0.709,-0.365869 -0.24401,0 -0.44417,0.08017 -0.60048,0.240295 -0.15632,0.160129 -0.23461,0.362159 -0.23461,0.606165 0,0.247818 0.082,0.455463 0.24598,0.623217 0.16775,0.167754 0.37591,0.251665 0.62373,0.251665 0.36219,0 0.61954,-0.211389 0.77205,-0.634587 l 2.12131,-0.0801 c -0.061,0.82352 -0.36753,1.4999 -0.92035,2.02985 -0.55283,0.529951 -1.22597,0.7953 -2.019,0.7953 -0.83877,0 -1.54801,-0.292072 -2.12752,-0.875399 -0.57571,-0.583326 -0.86351,-1.298176 -0.86351,-2.144572 0,-0.804457 0.29155,-1.492584 0.87488,-2.064473 0.58333,-0.57189 1.2832,-0.857829 2.0991,-0.857829 z m 7.07967,0.120406 h 2.22467 l -1.04645,2.075842 1.55546,3.625619 h -2.3673 l -1.33842,-3.72277 z m 6.67608,0.0801 h 0.64647 v 2.253092 c -0.3012,0 -0.50936,0.05719 -0.62374,0.171566 -0.11056,0.110565 -0.18085,0.33183 -0.21135,0.663525 -0.0991,1.10184 -0.52617,1.879492 -1.28106,2.333191 -0.40032,0.236381 -0.96846,0.354501 -1.70429,0.354501 h -0.29714 v -2.264462 h 0.0971 c 0.34313,0 0.58686,-0.07081 0.73174,-0.211873 0.14869,-0.144879 0.23447,-0.396609 0.25735,-0.754993 0.0305,-0.583327 0.0839,-0.993001 0.1602,-1.229382 0.0801,-0.236381 0.24039,-0.470749 0.48059,-0.703316 0.41938,-0.407948 1.00062,-0.611849 1.74408,-0.611849 z m -33.88786,0.28267 1.40405,1.984892 2.43138,-0.03101 -1.45418,1.948718 0.78083,2.302702 -2.3027,-0.780831 -1.94872,1.454175 0.031,-2.431376 -1.98489,-1.404049 2.32182,-0.721403 z m 13.5723,1.627291 c -0.22875,0 -0.4233,0.08391 -0.58343,0.251664 -0.16013,0.163941 -0.23978,0.365971 -0.23978,0.606164 0,0.236381 0.0797,0.43841 0.23978,0.606165 0.16394,0.167754 0.35849,0.251664 0.58343,0.251664 0.22876,0 0.4233,-0.08391 0.58343,-0.251664 0.16394,-0.167755 0.24598,-0.369784 0.24598,-0.606165 0,-0.240193 -0.0802,-0.442223 -0.2403,-0.606164 -0.16013,-0.167755 -0.35654,-0.251664 -0.58911,-0.251664 z m 23.55825,1.149283 c 0.37363,0 0.69378,0.135483 0.96067,0.406177 0.27069,0.270695 0.40617,0.592715 0.40617,0.96635 0,0.373634 -0.13361,0.692428 -0.40049,0.955497 -0.26689,0.259256 -0.5889,0.388607 -0.96635,0.388607 -0.39269,0 -0.71659,-0.125607 -0.97203,-0.377238 -0.25163,-0.255444 -0.37776,-0.579854 -0.37776,-0.972551 0,-0.38126 0.13174,-0.70328 0.39481,-0.966349 0.26307,-0.266881 0.58135,-0.400493 0.95498,-0.400493 z" /><text
       xml:space="preserve"
       style="font-style:normal;font-weight:normal;font-size:10.5833px;line-height:1.25;font-family:sans-serif;display:inline;fill:#ff0000;fill-opacity:1;stroke:none;stroke-width:0.264583"
       x="154.48981"
       y="81.851288"
       id="text9528"><tspan
         sodipodi:role="line"
         id="tspan9524"
         style="font-style:normal;font-variant:normal;font-weight:normal;font-stretch:normal;font-family:'Sofia Pro';-inkscape-font-specification:'Sofia Pro';fill:#ff0000;stroke:none;stroke-width:0.264583"
         x="154.48981"
         y="81.851288">NEGATIV</tspan><tspan
         sodipodi:role="line"
         style="font-style:normal;font-variant:normal;font-weight:normal;font-stretch:normal;font-family:'Sofia Pro';-inkscape-font-specification:'Sofia Pro';fill:#ff0000;stroke:none;stroke-width:0.264583"
         x="154.48981"
         y="95.449509"
         id="tspan9526" /></text></g></svg>
