<?xml version="1.0" encoding="UTF-8" standalone="no"?>
<!-- Created with Inkscape (http://www.inkscape.org/) -->

<svg
   xmlns:dc="http://purl.org/dc/elements/1.1/"
   xmlns:cc="http://creativecommons.org/ns#"
   xmlns:rdf="http://www.w3.org/1999/02/22-rdf-syntax-ns#"
   xmlns:svg="http://www.w3.org/2000/svg"
   xmlns="http://www.w3.org/2000/svg"
   xmlns:sodipodi="http://sodipodi.sourceforge.net/DTD/sodipodi-0.dtd"
   xmlns:inkscape="http://www.inkscape.org/namespaces/inkscape"
   width="124.265mm"
   height="124.265mm"
   viewBox="0 0 124.265 124.265"
   version="1.1"
   id="svg8"
   sodipodi:docname="ETTD_Button_DE_30_min.svg"
   inkscape:version="0.91 r13725"
   inkscape:export-filename="C:\Data\techLAB\ET2D_Buttons_Zeitdauer\ETTD_Button_DE_30_min.png"
   inkscape:export-xdpi="96"
   inkscape:export-ydpi="96">
  <defs
     id="defs2" />
  <sodipodi:namedview
     id="base"
     pagecolor="#ffffff"
     bordercolor="#666666"
     borderopacity="1.0"
     inkscape:pageopacity="0.0"
     inkscape:pageshadow="2"
     inkscape:zoom="1.2220607"
     inkscape:cx="224.72572"
     inkscape:cy="156.94703"
     inkscape:document-units="mm"
     inkscape:current-layer="layer1"
     showgrid="false"
     inkscape:measure-start="0,0"
     inkscape:measure-end="0,0"
     inkscape:window-width="1080"
     inkscape:window-height="1857"
     inkscape:window-x="-8"
     inkscape:window-y="-8"
     inkscape:window-maximized="1"
     fit-margin-top="0"
     fit-margin-left="0"
     fit-margin-right="0"
     fit-margin-bottom="0" />
  <metadata
     id="metadata5">
    <rdf:RDF>
      <cc:Work
         rdf:about="">
        <dc:format>image/svg+xml</dc:format>
        <dc:type
           rdf:resource="http://purl.org/dc/dcmitype/StillImage" />
        <dc:title></dc:title>
      </cc:Work>
    </rdf:RDF>
  </metadata>
  <g
     inkscape:label="Ebene 1"
     inkscape:groupmode="layer"
     id="layer1"
     transform="translate(-39.165123,-38.849037)">
    <flowRoot
       xml:space="preserve"
       id="flowRoot823"
       style="font-style:normal;font-weight:normal;font-size:40px;line-height:1.25;font-family:sans-serif;letter-spacing:0px;word-spacing:0px;fill:#000000;fill-opacity:1;stroke:none"><flowRegion
         id="flowRegion825"><rect
           id="rect827"
           width="454.28571"
           height="705.71429"
           x="265.71429"
           y="259.66254" /></flowRegion><flowPara
         id="flowPara829" /></flowRoot>    <g
       transform="matrix(0.7917674,0.201894,-0.30239189,1.1858898,0,0)"
       style="font-style:normal;font-weight:normal;font-size:23.48142433px;line-height:1.25;font-family:sans-serif;letter-spacing:0px;word-spacing:0px;fill:#000000;fill-opacity:1;stroke:none;stroke-width:0.58703583"
       id="text833">
      <path
         d="m 105.15199,35.546764 q 0.49303,0 0.85994,-0.01147 0.37838,-0.01147 0.72235,-0.04586 0.34398,-0.04586 0.68796,-0.126125 0.35545,-0.08026 0.82555,-0.229319 0.14906,0.435706 0.28665,0.825548 0.14905,0.389842 0.29811,0.802615 -0.36691,0.137592 -0.67649,0.217853 -0.30958,0.08026 -0.61916,0.137591 -0.29811,0.04586 -0.60769,0.0688 -0.29812,0.01147 -0.6421,0.02293 0.32105,0.515967 0.49304,1.15806 0.17199,0.642092 0.17199,1.398844 0,1.10073 -0.33251,1.926278 -0.33252,0.814082 -0.95168,1.387379 -0.61916,0.573297 -1.49057,0.871411 -0.85994,0.286648 -1.93774,0.286648 -0.55037,0 -1.0434,-0.05733 -0.49304,-0.0688 -0.94021,-0.229319 -0.10319,0.275183 -0.18346,0.561831 -0.0688,0.286648 -0.0688,0.550365 0.0115,0.252251 0.10319,0.470104 0.0917,0.206386 0.32105,0.332512 0.11466,0.0688 0.24078,0.114659 0.12613,0.0344 0.29812,0.0688 0.18345,0.02293 0.4357,0.04586 0.25225,0.01147 0.6077,0.01147 0.34398,0.01147 0.80261,0.01147 0.47011,0 1.08927,0 1.78868,0 2.70596,0.756752 0.91727,0.745286 0.91727,2.327586 0,0.642093 -0.20638,1.135128 -0.20639,0.504501 -0.5733,0.871411 -0.35544,0.36691 -0.84848,0.607695 -0.49303,0.252251 -1.06633,0.401308 -0.5733,0.160523 -1.20392,0.217853 -0.61917,0.06879 -1.24979,0.06879 -0.63063,0 -1.27272,-0.06879 -0.63063,-0.0688 -1.238323,-0.171989 -0.607694,-0.103194 -1.146593,-0.240785 -0.527434,-0.126125 -0.940207,-0.252251 0.160523,-0.389842 0.355444,-0.779684 0.206387,-0.389842 0.435705,-0.73382 0.722355,0.206387 1.719894,0.401308 0.99753,0.194921 2.21292,0.194921 0.55037,0 1.0778,-0.0688 0.5389,-0.0688 0.96314,-0.263716 0.43571,-0.183455 0.69942,-0.504501 0.26372,-0.309581 0.26372,-0.814082 0,-0.527433 -0.19492,-0.814082 -0.18346,-0.286648 -0.5045,-0.424239 -0.32105,-0.137592 -0.75675,-0.160524 -0.43571,-0.02293 -0.91728,-0.02293 l -1.50204,0 q -0.67649,0 -1.27272,-0.103194 -0.596226,-0.103193 -1.043398,-0.343978 -0.447171,-0.252251 -0.710888,-0.653559 -0.25225,-0.401307 -0.25225,-0.98607 0,-0.561831 0.206386,-1.15806 0.206387,-0.607695 0.5389,-1.226856 -0.756752,-0.550365 -1.169526,-1.456174 -0.401308,-0.905809 -0.401308,-2.086801 0,-1.077798 0.332512,-1.903346 0.343978,-0.837013 0.963139,-1.421776 0.619161,-0.584763 1.479103,-0.871411 0.85995,-0.286649 1.93775,-0.286649 1.009,0 1.85748,0.263717 l 1.05487,0 z m -2.91235,1.318583 q -0.72236,0 -1.23832,0.217853 -0.51597,0.217852 -0.84848,0.607694 -0.32105,0.378376 -0.481574,0.917276 -0.149057,0.527433 -0.149057,1.158059 0,0.642093 0.149057,1.169526 0.160524,0.527433 0.493034,0.917275 0.33251,0.378376 0.83702,0.596229 0.51596,0.206387 1.23832,0.206387 0.72235,0 1.23832,-0.206387 0.51597,-0.217853 0.83701,-0.596229 0.33251,-0.389842 0.48157,-0.917275 0.16052,-0.538899 0.16052,-1.169526 0,-0.630626 -0.16052,-1.158059 -0.14906,-0.5389 -0.48157,-0.917276 -0.32104,-0.389842 -0.83701,-0.607694 -0.51597,-0.217853 -1.23832,-0.217853 z"
         style="font-style:normal;font-variant:normal;font-weight:normal;font-stretch:normal;font-size:23.48224258px;font-family:Alef;-inkscape-font-specification:'Alef, Normal';text-align:start;writing-mode:lr-tb;text-anchor:start;stroke-width:0.58703583"
         id="path4172"
         inkscape:connector-curvature="0" />
      <path
         d="m 122.0982,41.291415 -9.43614,0 q 0,1.18095 0.35543,2.063797 0.35543,0.871381 0.97457,1.433192 0.59621,0.550346 1.41026,0.825519 0.82552,0.275173 1.81156,0.275173 1.30707,0 2.6256,-0.515949 1.33001,-0.527415 1.89182,-1.031899 l 0.11465,0 0,2.350436 q -1.08922,0.458621 -2.22431,0.768191 -1.13509,0.309569 -2.38483,0.309569 -3.18742,0 -4.97605,-1.719831 -1.78862,-1.731296 -1.78862,-4.90725 0,-3.141558 1.70836,-4.98751 1.71983,-1.845952 4.51743,-1.845952 2.59121,0 3.99,1.513451 1.41027,1.513452 1.41027,4.299578 l 0,1.169485 z M 120,39.640377 q -0.0115,-1.6969 -0.85991,-2.625609 -0.83699,-0.928708 -2.55682,-0.928708 -1.7313,0 -2.76319,1.020433 -1.02044,1.020433 -1.15802,2.533884 l 7.33794,0 z"
         style="stroke-width:0.58703583"
         id="path4174"
         inkscape:connector-curvature="0" />
      <path
         d="m 123.82951,46.771918 1.27272,0 0,-7.773907 -1.45617,0 0,-0.710888 q 0.36691,0 1.23832,-0.02293 0.87141,-0.02293 0.9746,-0.02293 0.56183,0 0.94021,-0.02293 0.37838,-0.0344 1.44471,-0.137592 l 0,2.350518 q 0.66502,-1.226856 1.5479,-1.788687 0.88288,-0.561831 2.1212,-0.561831 1.28418,0 1.97214,0.584763 0.69942,0.584763 0.69942,1.685493 0.66503,-1.180991 1.5479,-1.719891 0.88288,-0.550365 2.14413,-0.550365 0.80262,0 1.35299,0.217853 0.56183,0.206387 0.9402,0.653559 0.20639,0.240784 0.30958,0.61916 0.0459,0.183455 0.0688,0.42424 0.0229,0.240785 0.0229,0.619161 l 0,0.67649 0,5.480719 1.43324,0 0,0.699422 -5.82469,0 0,-0.699422 1.22685,0 0,-6.46679 q 0,-0.653558 -0.22932,-0.928741 -0.22932,-0.286648 -0.73382,-0.286648 -0.85994,0 -1.57083,1.009003 -0.71089,0.997536 -0.71089,2.304653 l 0,4.368523 1.14659,0 0,0.699422 -5.44632,0 0,-0.699422 1.20393,0 0,-6.46679 q 0,-0.653558 -0.22932,-0.928741 -0.22932,-0.286648 -0.73382,-0.286648 -0.84848,0 -1.5479,1.009003 -0.68796,0.997536 -0.68796,2.304653 l 0,4.368523 1.15806,0 0,0.699422 -5.59538,0 0,-0.699422 z"
         style="font-style:normal;font-variant:normal;font-weight:normal;font-stretch:normal;font-size:23.48224258px;font-family:'Bodoni Bd BT';-inkscape-font-specification:'Bodoni Bd BT, Normal';text-align:start;writing-mode:lr-tb;text-anchor:start;stroke-width:0.58703583"
         id="path4176"
         inkscape:connector-curvature="0" />
      <path
         d="m 151.31337,44.318207 0,-3.554441 q -0.76822,0.0688 -1.94921,0.194921 -1.16953,0.114659 -1.89188,0.332512 -0.85995,0.263717 -1.42178,0.814082 -0.56183,0.538899 -0.56183,1.513504 0,1.10073 0.61916,1.662561 0.61916,0.561831 1.81162,0.561831 1.02047,0 1.84602,-0.435706 0.82554,-0.447171 1.5479,-1.089264 z m 0,1.788686 q -0.26372,0.194921 -0.71089,0.550366 -0.43571,0.343978 -0.84848,0.550365 -0.5733,0.298114 -1.1122,0.458637 -0.52743,0.160523 -1.49057,0.160523 -0.79115,0 -1.50204,-0.298114 -0.71088,-0.298115 -1.24978,-0.837014 -0.51597,-0.527433 -0.82555,-1.295651 -0.30958,-0.779684 -0.30958,-1.639629 0,-1.330049 0.56183,-2.25879 0.56183,-0.940207 1.77722,-1.490572 1.0778,-0.493035 2.54544,-0.67649 1.46764,-0.194921 3.1646,-0.286649 l 0,-0.412774 q 0,-0.756752 -0.22932,-1.215389 -0.22932,-0.470104 -0.64209,-0.722354 -0.41278,-0.263717 -1.00901,-0.343978 -0.59622,-0.09173 -1.22685,-0.09173 -0.74529,0 -1.75429,0.229319 -1.009,0.217853 -2.01801,0.642092 l -0.12612,0 0,-2.189994 q 0.59623,-0.171989 1.70842,-0.378376 1.1122,-0.206387 2.20146,-0.206387 1.31859,0 2.2244,0.206387 0.90581,0.206387 1.62816,0.745286 0.69942,0.527433 1.0434,1.364447 0.34398,0.837013 0.34398,2.040937 l 0,8.759977 -2.14413,0 0,-1.364447 z"
         style="font-style:normal;font-variant:normal;font-weight:normal;font-stretch:normal;font-size:23.48224258px;font-family:Tahoma;-inkscape-font-specification:'Tahoma, Normal';text-align:start;writing-mode:lr-tb;text-anchor:start;stroke-width:0.58703583"
         id="path4178"
         inkscape:connector-curvature="0" />
      <path
         d="m 162.21747,44.467264 q -0.10319,0.619161 -0.37837,1.203924 -0.27518,0.584763 -0.71089,1.0434 -0.42424,0.458638 -0.99754,0.745286 -0.56183,0.275183 -1.22685,0.275183 -0.85995,0 -1.50204,-0.36691 -0.63063,-0.378376 -1.05487,-0.974605 -0.41277,-0.607695 -0.61916,-1.352981 -0.20638,-0.756752 -0.20638,-1.513504 0,-0.825547 0.26371,-1.582299 0.26372,-0.768218 0.75675,-1.352981 0.49304,-0.584763 1.19246,-0.928741 0.69942,-0.343978 1.57084,-0.343978 0.38984,0 0.85994,0.126125 0.48157,0.114659 0.88288,0.355444 0.40131,0.240785 0.67649,0.596229 0.27518,0.355444 0.27518,0.825548 0,0.389841 -0.22932,0.561831 -0.21785,0.171989 -0.58476,0.171989 -0.38984,0 -0.5733,-0.149058 -0.18345,-0.160523 -0.26371,-0.389841 -0.0803,-0.229319 -0.11466,-0.493036 -0.0344,-0.275182 -0.14906,-0.504501 -0.10319,-0.229319 -0.34398,-0.378376 -0.24078,-0.160523 -0.72235,-0.160523 -0.5733,0 -0.97461,0.275182 -0.38984,0.263717 -0.63062,0.687957 -0.24079,0.424239 -0.35545,0.940207 -0.10319,0.504501 -0.10319,0.98607 0,0.584763 0.13759,1.21539 0.13759,0.630626 0.44717,1.15806 0.30958,0.527433 0.79115,0.871411 0.49304,0.332512 1.18099,0.332512 0.48157,0 0.85995,-0.160523 0.37837,-0.160523 0.66502,-0.435706 0.29812,-0.275182 0.51597,-0.630626 0.22932,-0.36691 0.40131,-0.768218 l 0.26371,0.114659 z"
         style="font-style:normal;font-variant:normal;font-weight:normal;font-stretch:normal;font-size:23.48224258px;font-family:Scheherazade;-inkscape-font-specification:'Scheherazade, Normal';text-align:start;writing-mode:lr-tb;text-anchor:start;stroke-width:0.58703583"
         id="path4180"
         inkscape:connector-curvature="0" />
      <path
         d="m 163.55899,47.10443 0,-0.550365 0.45864,0 q 0.45864,0 0.64209,-0.183455 0.18346,-0.183455 0.18346,-0.550365 l 0,-13.117034 q 0,-0.36691 -0.18346,-0.550365 -0.18345,-0.183455 -0.64209,-0.183455 l -0.55037,0 0,-0.550365 1.00901,0 q 0.36691,0 0.73382,-0.183455 0.36691,-0.183455 0.73382,-0.550365 l 0.18345,0 0,7.796838 q 0.82555,-1.009002 1.6511,-1.375912 0.91727,-0.458638 1.92628,-0.458638 1.37591,0 2.10973,0.825548 0.73382,0.73382 0.73382,2.384915 l 0,5.962288 q 0,0.36691 0.18345,0.550365 0.27519,0.183455 0.6421,0.183455 l 0.45863,0 0,0.550365 -3.85255,0 0,-0.550365 0.45864,0 q 0.45863,0 0.64209,-0.183455 0.18345,-0.183455 0.18345,-0.550365 l 0,-5.778833 q 0,-1.559368 -0.55036,-2.018005 -0.45864,-0.550365 -1.28419,-0.550365 -0.73382,0 -1.65109,0.458637 -0.82555,0.458638 -1.6511,1.559368 l 0,6.329198 q 0,0.36691 0.18346,0.550365 0.27518,0.183455 0.64209,0.183455 l 0.45864,0 0,0.550365 -3.85256,0 z"
         style="font-style:normal;font-variant:normal;font-weight:normal;font-stretch:normal;font-size:23.48224258px;font-family:NSimSun;-inkscape-font-specification:'NSimSun, Normal';text-align:start;writing-mode:lr-tb;text-anchor:start;stroke-width:0.58703583"
         id="path4182"
         inkscape:connector-curvature="0" />
      <path
         d="m 176.35498,45.384539 0,-6.386528 -1.34152,0 0,-0.710888 1.34152,0 0,-2.889416 0.5045,0.08026 0.84848,0.02293 q 0.17199,0 0.48157,-0.01147 0.32104,-0.01147 0.45864,-0.01147 l 0.84848,-0.08026 0,2.889416 1.88041,0 0,0.710888 -1.88041,0 0,6.386528 q 0,0.584763 0.16052,0.814082 0.16052,0.217853 0.59623,0.217853 0.42424,0 0.69942,-0.355444 0.28665,-0.36691 0.35544,-0.986071 l 0.63063,0 q 0,0.584763 -0.25225,1.054866 -0.24078,0.470104 -0.71089,0.859946 -0.90581,0.710888 -2.30465,0.710888 -1.34152,0 -1.83455,-0.447172 -0.48157,-0.447171 -0.48157,-1.868948 z"
         style="font-style:normal;font-variant:normal;font-weight:normal;font-stretch:normal;font-size:23.48224258px;font-family:'Bodoni Bd BT';-inkscape-font-specification:'Bodoni Bd BT, Normal';text-align:start;writing-mode:lr-tb;text-anchor:start;stroke-width:0.58703583"
         id="path4184"
         inkscape:connector-curvature="0" />
      <path
         d="m 192.90033,36.853881 q 0,0.36691 -0.25225,0.630627 -0.25225,0.263716 -0.61916,0.263716 -0.36691,0 -0.63063,-0.252251 -0.25225,-0.25225 -0.25225,-0.642092 0,-0.36691 0.25225,-0.607695 0.26372,-0.252251 0.63063,-0.252251 0.35544,0 0.60769,0.252251 0.26372,0.252251 0.26372,0.607695 z m -2.82062,10.617459 0,-0.332512 q 0.38984,0 0.63062,-0.05733 0.24079,-0.05733 0.36691,-0.206387 0.13759,-0.149057 0.18346,-0.389842 0.0459,-0.25225 0.0459,-0.630626 l 0,-4.230932 q 0,-0.194921 -0.0229,-0.401307 -0.0115,-0.206387 -0.0803,-0.378376 -0.0573,-0.17199 -0.18346,-0.275183 -0.11466,-0.114659 -0.32104,-0.114659 -0.13759,0 -0.29812,0.04586 -0.16052,0.0344 -0.32104,0.09173 l -0.11466,-0.30958 2.39638,-0.963139 0.37837,0 0,6.535585 q 0,0.378376 0.0459,0.630626 0.0459,0.240785 0.17199,0.389842 0.13759,0.149058 0.36691,0.206387 0.24078,0.05733 0.63062,0.05733 l 0,0.332512 -3.87548,0 z"
         style="font-style:normal;font-variant:normal;font-weight:normal;font-stretch:normal;font-size:23.48224258px;font-family:Scheherazade;-inkscape-font-specification:'Scheherazade, Normal';text-align:start;writing-mode:lr-tb;text-anchor:start;stroke-width:0.58703583"
         id="path4186"
         inkscape:connector-curvature="0" />
      <path
         d="m 194.75781,46.771918 1.41031,0 0,-7.796838 -1.55937,0 0,-0.733821 2.41931,-0.0344 q 0.58477,0 1.06634,-0.02293 0.49303,-0.0344 1.28418,-0.103194 l 0,2.327586 q 0.66503,-1.203924 1.57084,-1.765755 0.9058,-0.561831 2.16706,-0.561831 1.5135,0 2.09826,0.630627 0.59623,0.630627 0.59623,2.68303 l 0,5.377525 1.36445,0 0,0.699422 -5.73297,0 0,-0.699422 1.20392,0 0,-6.489721 q 0,-0.653559 -0.22931,-0.928741 -0.22932,-0.286649 -0.73382,-0.286649 -0.84848,0 -1.57084,1.009003 -0.71089,1.009002 -0.71089,2.304653 l 0,4.391455 1.181,0 0,0.699422 -5.8247,0 0,-0.699422 z"
         style="font-style:normal;font-variant:normal;font-weight:normal;font-stretch:normal;font-size:23.48224258px;font-family:'Bodoni Bd BT';-inkscape-font-specification:'Bodoni Bd BT, Normal';text-align:start;writing-mode:lr-tb;text-anchor:start;stroke-width:0.58703583"
         id="path4188"
         inkscape:connector-curvature="0" />
    </g>
    <g
       transform="matrix(0.11858097,0.01759523,-0.01788945,0.11663075,40.351883,33.921607)"
       style="font-style:normal;font-variant:normal;font-weight:normal;font-stretch:normal;font-size:399.98950195px;line-height:1.25;font-family:Scheherazade;-inkscape-font-specification:'Scheherazade, Normal';text-align:start;letter-spacing:0px;word-spacing:0px;writing-mode:lr-tb;text-anchor:start;fill:#000000;fill-opacity:1;stroke:none"
       id="flowRoot855">
      <path
         d="m 247.04098,502.11552 q -9.19806,0 -18.39613,2.21435 -9.19807,2.21435 -18.05547,5.79138 -8.17606,3.40669 -14.30811,7.15405 -5.96171,3.74736 -10.73108,6.98372 l -2.04401,0 0,-35.9406 q 11.07175,-5.96171 29.97889,-10.73108 19.07747,-4.93971 36.28127,-4.93971 17.20379,0 29.97889,3.57703 12.94543,3.40669 23.33584,10.73108 11.24208,8.17606 16.86313,19.75881 5.79137,11.58276 5.79137,27.08321 0,20.95115 -13.7971,36.79227 -13.7971,15.84112 -33.04491,20.09949 l 0,2.38468 q 8.00572,1.53301 17.03346,5.28037 9.19807,3.74736 17.03346,11.07175 7.83539,7.32439 12.77509,18.90714 4.93971,11.41242 4.93971,27.93488 0,17.20379 -5.96171,31.68224 -5.79138,14.3081 -16.52246,25.37985 -11.07175,11.58276 -26.74253,17.54447 -15.67079,5.96171 -35.59994,5.96171 -19.07747,0 -37.81428,-4.59904 -18.73681,-4.59903 -31.5119,-11.07175 l 0,-35.9406 2.38468,0 q 10.73108,7.83539 28.78655,14.98945 18.05547,7.15405 36.11094,7.15405 10.39041,0 20.78082,-3.23636 10.56074,-3.40669 17.54446,-10.90141 6.81339,-7.49472 10.39041,-16.52246 3.57703,-9.02773 3.57703,-22.82484 0,-13.7971 -4.08803,-22.6545 -3.9177,-8.8574 -11.07175,-13.96744 -7.15405,-5.11003 -17.03346,-6.98371 -9.70907,-2.04402 -21.12149,-2.04402 l -14.47844,0 0,-28.27554 11.24208,0 q 22.99517,0 37.30328,-10.90142 14.47844,-10.90141 14.47844,-31.68224 0,-9.53873 -3.74736,-16.35212 -3.74736,-6.98372 -9.53874,-11.07175 -6.47271,-4.4287 -14.3081,-6.13204 -7.8354,-1.70335 -16.6928,-1.70335 z"
         style="font-style:normal;font-variant:normal;font-weight:normal;font-stretch:normal;font-size:348.84527588px;font-family:Tahoma;-inkscape-font-specification:Tahoma;text-align:start;writing-mode:lr-tb;text-anchor:start"
         id="path4161"
         inkscape:connector-curvature="0" />
      <path
         d="m 527.3129,603.523 q 0,12.55711 -1.72353,27.33017 -1.72352,14.52685 -5.66301,29.29992 -3.93948,14.52684 -10.34114,28.31504 -6.15545,13.78819 -15.51172,24.37556 -9.11006,10.34114 -21.42095,16.7428 -12.31088,6.40167 -28.06882,6.40167 -14.77306,0 -26.59152,-6.15545 -11.81845,-6.40166 -20.68229,-16.74281 -8.86384,-10.34114 -15.2655,-23.6369 -6.15544,-13.54198 -10.09493,-27.82261 -3.93948,-14.52685 -5.90922,-28.56126 -1.72353,-14.28063 -1.72353,-26.09908 0,-12.06467 1.72353,-26.59152 1.96974,-14.52685 5.90922,-29.05369 3.93949,-14.77307 10.34115,-28.56126 6.40166,-14.03441 15.51172,-24.62178 9.11005,-10.83358 21.17472,-17.23524 12.06467,-6.40166 27.57639,-6.40166 15.2655,0 27.08396,6.40166 12.06467,6.15544 20.92851,16.49659 9.11005,10.09493 15.2655,23.6369 6.15544,13.29576 10.09492,27.82261 3.93949,14.28063 5.66301,28.56126 1.72353,14.03441 1.72353,26.09908 z m -36.44023,-6.15544 q 0,-7.14032 -0.49244,-18.22012 -0.24621,-11.0798 -1.72352,-23.39068 -1.47731,-12.31089 -4.43192,-24.62178 -2.7084,-12.31089 -7.63275,-22.1596 -4.92436,-10.09493 -12.55711,-16.25037 -7.38653,-6.15544 -17.97389,-6.15544 -10.83358,0 -18.46633,7.38653 -7.38654,7.14031 -12.55711,18.71255 -4.92436,11.57223 -7.87897,25.85286 -2.95461,14.28063 -4.43192,28.31505 -1.23109,13.78819 -1.72352,25.85286 -0.24622,11.81845 -0.24622,18.95877 0,7.14031 0.24622,18.22011 0.49243,11.0798 1.96974,23.63691 1.47731,12.31088 4.1857,25.11421 2.95461,12.5571 7.87897,22.65203 5.17057,10.09493 12.55711,16.49659 7.38653,6.15545 17.97389,6.15545 11.0798,0 18.71255,-7.14032 7.87897,-7.38653 12.80332,-18.71255 5.17058,-11.57223 7.87897,-25.85286 2.7084,-14.28063 3.93949,-28.31505 1.4773,-14.03441 1.72352,-26.3453 0.24622,-12.31088 0.24622,-20.18985 z"
         style="font-style:normal;font-variant:normal;font-weight:normal;font-stretch:normal;font-size:504.25396729px;font-family:Scheherazade;-inkscape-font-specification:Scheherazade"
         id="path4163"
         inkscape:connector-curvature="0" />
      <path
         d="m 561.10635,731.55624 0,-77.51019 q 0,-18.56386 -0.84381,-27.96634 -0.48218,-7.35322 -3.13416,-17.96115 l 19.76932,-4.46015 q 2.29034,7.23268 3.2547,13.98317 0.48218,2.53144 1.20545,13.13937 l 2.53143,0 q 6.14778,-12.29555 15.42971,-19.28714 10.0052,-8.07649 22.78293,-8.07649 7.23268,0 13.98318,2.65198 6.75049,2.53144 11.33119,7.23268 6.87104,6.7505 9.76411,20.0104 l 1.44654,0 q 7.23267,-13.98317 16.99679,-21.45694 10.48738,-8.43812 23.50619,-8.43812 15.79135,0 24.22947,8.79976 7.35322,7.35322 10.36684,22.42129 2.1698,10.96956 2.1698,30.61833 l 0,66.29954 -20.73367,0 0,-72.08568 q 0,-9.52302 -1.0849,-15.6708 -1.68763,-9.52302 -6.02723,-14.82698 -5.42451,-6.38887 -15.18862,-6.38887 -11.09011,0 -20.49259,10.60793 -5.66559,6.38886 -13.50099,19.76931 0.24109,2.04926 0.24109,6.02723 l 0,72.56786 -20.73368,0 0,-72.08568 q 0,-15.30916 -3.01361,-23.5062 -5.06287,-13.38045 -19.16659,-13.38045 -10.84902,0 -20.61313,10.84902 -5.6656,6.26832 -13.74209,20.85421 l 0,77.2691 -20.73367,0 z"
         style="font-style:normal;font-variant:normal;font-weight:normal;font-stretch:normal;font-size:246.87535095px;font-family:Alef;-inkscape-font-specification:'Alef, Normal';text-align:start;writing-mode:lr-tb;text-anchor:start"
         id="path4165"
         inkscape:connector-curvature="0" />
      <path
         d="m 805.57082,634.15619 q 0,-3.85742 -1.92872,-5.78614 -1.92871,-2.89307 -6.75049,-2.89307 l -20.2515,0 0,-5.78614 9.64357,0 q 8.67921,0 16.39407,-0.96435 7.71485,-1.92872 14.46535,-5.78615 l 1.92871,0 0,101.25747 q 0,3.85743 1.92872,5.78614 2.89307,1.92872 6.7505,1.92872 l 20.25149,0 0,5.78614 -71.36241,0 0,-5.78614 20.2515,0 q 4.82178,0 6.75049,-1.92872 1.92872,-1.92871 1.92872,-5.78614 l 0,-80.04162 z m 11.57228,-19.28713 0,0 z m -3.85743,-54.00398 q 4.82179,0 8.67921,3.85742 3.85743,2.89307 3.85743,7.71486 0,4.82178 -3.85743,8.67921 -3.85742,3.85743 -8.67921,3.85743 -4.82178,0 -8.67921,-3.85743 -3.85743,-3.85743 -3.85743,-8.67921 0,-4.82179 3.85743,-7.71486 3.85743,-3.85742 8.67921,-3.85742 z"
         style="font-style:normal;font-variant:normal;font-weight:normal;font-stretch:normal;font-size:246.87535095px;font-family:NSimSun;-inkscape-font-specification:'NSimSun, Normal';text-align:start;writing-mode:lr-tb;text-anchor:start"
         id="path4167"
         inkscape:connector-curvature="0" />
      <path
         d="m 878.01813,724.20301 14.82699,0 0,-81.97033 -16.39407,0 0,-7.71485 25.43491,-0.36164 q 6.14778,0 11.21065,-0.24108 5.18342,-0.36164 13.501,-1.08491 l 0,24.47056 q 6.99159,-12.65718 16.51461,-18.56387 9.52302,-5.90669 22.78293,-5.90669 15.91189,0 22.05966,6.62996 6.26832,6.62995 6.26832,28.20744 l 0,56.53541 14.34477,0 0,7.35323 -60.27226,0 0,-7.35323 12.65718,0 0,-68.22824 q 0,-6.87104 -2.41089,-9.76411 -2.41089,-3.01362 -7.71486,-3.01362 -8.9203,0 -16.51461,10.60793 -7.47376,10.60792 -7.47376,24.22946 l 0,46.16858 12.41609,0 0,7.35323 -61.23666,0 0,-7.35323 z"
         style="font-style:normal;font-variant:normal;font-weight:normal;font-stretch:normal;font-size:246.87535095px;font-family:'Bodoni Bd BT';-inkscape-font-specification:'Bodoni Bd BT, Normal';text-align:start;writing-mode:lr-tb;text-anchor:start"
         id="path4169"
         inkscape:connector-curvature="0" />
    </g>
    <circle
       style="fill:none;stroke:#000000;stroke-width:2.2650001;stroke-linejoin:round;stroke-miterlimit:4;stroke-dasharray:none"
       id="path899"
       cx="101.29762"
       cy="100.98154"
       r="61"
       inkscape:export-xdpi="96"
       inkscape:export-ydpi="96" />
  </g>
</svg>
