<?xml version="1.0" encoding="UTF-8" standalone="no"?>
<!-- Created with Inkscape (http://www.inkscape.org/) -->

<svg
   xmlns:dc="http://purl.org/dc/elements/1.1/"
   xmlns:cc="http://creativecommons.org/ns#"
   xmlns:rdf="http://www.w3.org/1999/02/22-rdf-syntax-ns#"
   xmlns:svg="http://www.w3.org/2000/svg"
   xmlns="http://www.w3.org/2000/svg"
   xmlns:sodipodi="http://sodipodi.sourceforge.net/DTD/sodipodi-0.dtd"
   xmlns:inkscape="http://www.inkscape.org/namespaces/inkscape"
   width="210mm"
   height="297mm"
   viewBox="0 0 210 297"
   version="1.1"
   id="svg8"
   sodipodi:docname="ETTD_Button_DE_60_min.svg"
   inkscape:version="0.91 r13725"
   inkscape:export-filename="C:\Data\techLAB\ET2D_Buttons_Zeitdauer\Deutsch\SVG\ETTD_Button_DE_60_min.png"
   inkscape:export-xdpi="96"
   inkscape:export-ydpi="96">
  <defs
     id="defs2" />
  <sodipodi:namedview
     id="base"
     pagecolor="#ffffff"
     bordercolor="#666666"
     borderopacity="1.0"
     inkscape:pageopacity="0.0"
     inkscape:pageshadow="2"
     inkscape:zoom="1.2220607"
     inkscape:cx="178.97539"
     inkscape:cy="749.99816"
     inkscape:document-units="mm"
     inkscape:current-layer="layer1"
     showgrid="false"
     inkscape:measure-start="0,0"
     inkscape:measure-end="0,0"
     inkscape:window-width="1920"
     inkscape:window-height="1137"
     inkscape:window-x="1072"
     inkscape:window-y="302"
     inkscape:window-maximized="1" />
  <metadata
     id="metadata5">
    <rdf:RDF>
      <cc:Work
         rdf:about="">
        <dc:format>image/svg+xml</dc:format>
        <dc:type
           rdf:resource="http://purl.org/dc/dcmitype/StillImage" />
        <dc:title />
      </cc:Work>
    </rdf:RDF>
  </metadata>
  <g
     inkscape:label="Ebene 1"
     inkscape:groupmode="layer"
     id="layer1">
    <flowRoot
       xml:space="preserve"
       id="flowRoot823"
       style="fill:black;fill-opacity:1;stroke:none;font-family:sans-serif;font-style:normal;font-weight:normal;font-size:40px;line-height:1.25;letter-spacing:0px;word-spacing:0px"><flowRegion
         id="flowRegion825"><rect
           id="rect827"
           width="454.28571"
           height="705.71429"
           x="265.71429"
           y="259.66254" /></flowRegion><flowPara
         id="flowPara829" /></flowRoot>    <g
       transform="matrix(0.7917674,0.201894,-0.30239189,1.1858898,0,0)"
       style="font-style:normal;font-weight:normal;font-size:23.48142433px;line-height:1.25;font-family:sans-serif;letter-spacing:0px;word-spacing:0px;fill:#000000;fill-opacity:1;stroke:none;stroke-width:0.58703583"
       id="text833">
      <path
         d="m 105.15199,35.546764 q 0.49303,0 0.85994,-0.01147 0.37838,-0.01147 0.72235,-0.04586 0.34398,-0.04586 0.68796,-0.126125 0.35545,-0.08026 0.82555,-0.229319 0.14906,0.435706 0.28665,0.825548 0.14905,0.389842 0.29811,0.802615 -0.36691,0.137592 -0.67649,0.217853 -0.30958,0.08026 -0.61916,0.137591 -0.29811,0.04586 -0.60769,0.0688 -0.29812,0.01147 -0.6421,0.02293 0.32105,0.515967 0.49304,1.15806 0.17199,0.642092 0.17199,1.398844 0,1.10073 -0.33251,1.926278 -0.33252,0.814082 -0.95168,1.387379 -0.61916,0.573297 -1.49057,0.871411 -0.85994,0.286648 -1.93774,0.286648 -0.55037,0 -1.0434,-0.05733 -0.49304,-0.0688 -0.94021,-0.229319 -0.10319,0.275183 -0.18346,0.561831 -0.0688,0.286648 -0.0688,0.550365 0.0115,0.252251 0.10319,0.470104 0.0917,0.206386 0.32105,0.332512 0.11466,0.0688 0.24078,0.114659 0.12613,0.0344 0.29812,0.0688 0.18345,0.02293 0.4357,0.04586 0.25225,0.01147 0.6077,0.01147 0.34398,0.01147 0.80261,0.01147 0.47011,0 1.08927,0 1.78868,0 2.70596,0.756752 0.91727,0.745286 0.91727,2.327586 0,0.642093 -0.20638,1.135128 -0.20639,0.504501 -0.5733,0.871411 -0.35544,0.36691 -0.84848,0.607695 -0.49303,0.252251 -1.06633,0.401308 -0.5733,0.160523 -1.20392,0.217853 -0.61917,0.06879 -1.24979,0.06879 -0.63063,0 -1.27272,-0.06879 -0.63063,-0.0688 -1.238323,-0.171989 -0.607694,-0.103194 -1.146593,-0.240785 -0.527434,-0.126125 -0.940207,-0.252251 0.160523,-0.389842 0.355444,-0.779684 0.206387,-0.389842 0.435705,-0.73382 0.722355,0.206387 1.719894,0.401308 0.99753,0.194921 2.21292,0.194921 0.55037,0 1.0778,-0.0688 0.5389,-0.0688 0.96314,-0.263716 0.43571,-0.183455 0.69942,-0.504501 0.26372,-0.309581 0.26372,-0.814082 0,-0.527433 -0.19492,-0.814082 -0.18346,-0.286648 -0.5045,-0.424239 -0.32105,-0.137592 -0.75675,-0.160524 -0.43571,-0.02293 -0.91728,-0.02293 l -1.50204,0 q -0.67649,0 -1.27272,-0.103194 -0.596226,-0.103193 -1.043398,-0.343978 -0.447171,-0.252251 -0.710888,-0.653559 -0.25225,-0.401307 -0.25225,-0.98607 0,-0.561831 0.206386,-1.15806 0.206387,-0.607695 0.5389,-1.226856 -0.756752,-0.550365 -1.169526,-1.456174 -0.401308,-0.905809 -0.401308,-2.086801 0,-1.077798 0.332512,-1.903346 0.343978,-0.837013 0.963139,-1.421776 0.619161,-0.584763 1.479103,-0.871411 0.85995,-0.286649 1.93775,-0.286649 1.009,0 1.85748,0.263717 l 1.05487,0 z m -2.91235,1.318583 q -0.72236,0 -1.23832,0.217853 -0.51597,0.217852 -0.84848,0.607694 -0.32105,0.378376 -0.481574,0.917276 -0.149057,0.527433 -0.149057,1.158059 0,0.642093 0.149057,1.169526 0.160524,0.527433 0.493034,0.917275 0.33251,0.378376 0.83702,0.596229 0.51596,0.206387 1.23832,0.206387 0.72235,0 1.23832,-0.206387 0.51597,-0.217853 0.83701,-0.596229 0.33251,-0.389842 0.48157,-0.917275 0.16052,-0.538899 0.16052,-1.169526 0,-0.630626 -0.16052,-1.158059 -0.14906,-0.5389 -0.48157,-0.917276 -0.32104,-0.389842 -0.83701,-0.607694 -0.51597,-0.217853 -1.23832,-0.217853 z"
         style="font-style:normal;font-variant:normal;font-weight:normal;font-stretch:normal;font-size:23.48224258px;font-family:Alef;-inkscape-font-specification:'Alef, Normal';text-align:start;writing-mode:lr-tb;text-anchor:start;stroke-width:0.58703583"
         id="path3372" />
      <path
         d="m 122.0982,41.291415 -9.43614,0 q 0,1.18095 0.35543,2.063797 0.35543,0.871381 0.97457,1.433192 0.59621,0.550346 1.41026,0.825519 0.82552,0.275173 1.81156,0.275173 1.30707,0 2.6256,-0.515949 1.33001,-0.527415 1.89182,-1.031899 l 0.11465,0 0,2.350436 q -1.08922,0.458621 -2.22431,0.768191 -1.13509,0.309569 -2.38483,0.309569 -3.18742,0 -4.97605,-1.719831 -1.78862,-1.731296 -1.78862,-4.90725 0,-3.141558 1.70836,-4.98751 1.71983,-1.845952 4.51743,-1.845952 2.59121,0 3.99,1.513451 1.41027,1.513452 1.41027,4.299578 l 0,1.169485 z M 120,39.640377 q -0.0115,-1.6969 -0.85991,-2.625609 -0.83699,-0.928708 -2.55682,-0.928708 -1.7313,0 -2.76319,1.020433 -1.02044,1.020433 -1.15802,2.533884 l 7.33794,0 z"
         style="stroke-width:0.58703583"
         id="path3374" />
      <path
         d="m 123.82951,46.771918 1.27272,0 0,-7.773907 -1.45617,0 0,-0.710888 q 0.36691,0 1.23832,-0.02293 0.87141,-0.02293 0.9746,-0.02293 0.56183,0 0.94021,-0.02293 0.37838,-0.0344 1.44471,-0.137592 l 0,2.350518 q 0.66502,-1.226856 1.5479,-1.788687 0.88288,-0.561831 2.1212,-0.561831 1.28418,0 1.97214,0.584763 0.69942,0.584763 0.69942,1.685493 0.66503,-1.180991 1.5479,-1.719891 0.88288,-0.550365 2.14413,-0.550365 0.80262,0 1.35299,0.217853 0.56183,0.206387 0.9402,0.653559 0.20639,0.240784 0.30958,0.61916 0.0459,0.183455 0.0688,0.42424 0.0229,0.240785 0.0229,0.619161 l 0,0.67649 0,5.480719 1.43324,0 0,0.699422 -5.82469,0 0,-0.699422 1.22685,0 0,-6.46679 q 0,-0.653558 -0.22932,-0.928741 -0.22932,-0.286648 -0.73382,-0.286648 -0.85994,0 -1.57083,1.009003 -0.71089,0.997536 -0.71089,2.304653 l 0,4.368523 1.14659,0 0,0.699422 -5.44632,0 0,-0.699422 1.20393,0 0,-6.46679 q 0,-0.653558 -0.22932,-0.928741 -0.22932,-0.286648 -0.73382,-0.286648 -0.84848,0 -1.5479,1.009003 -0.68796,0.997536 -0.68796,2.304653 l 0,4.368523 1.15806,0 0,0.699422 -5.59538,0 0,-0.699422 z"
         style="font-style:normal;font-variant:normal;font-weight:normal;font-stretch:normal;font-size:23.48224258px;font-family:'Bodoni Bd BT';-inkscape-font-specification:'Bodoni Bd BT, Normal';text-align:start;writing-mode:lr-tb;text-anchor:start;stroke-width:0.58703583"
         id="path3376" />
      <path
         d="m 151.31337,44.318207 0,-3.554441 q -0.76822,0.0688 -1.94921,0.194921 -1.16953,0.114659 -1.89188,0.332512 -0.85995,0.263717 -1.42178,0.814082 -0.56183,0.538899 -0.56183,1.513504 0,1.10073 0.61916,1.662561 0.61916,0.561831 1.81162,0.561831 1.02047,0 1.84602,-0.435706 0.82554,-0.447171 1.5479,-1.089264 z m 0,1.788686 q -0.26372,0.194921 -0.71089,0.550366 -0.43571,0.343978 -0.84848,0.550365 -0.5733,0.298114 -1.1122,0.458637 -0.52743,0.160523 -1.49057,0.160523 -0.79115,0 -1.50204,-0.298114 -0.71088,-0.298115 -1.24978,-0.837014 -0.51597,-0.527433 -0.82555,-1.295651 -0.30958,-0.779684 -0.30958,-1.639629 0,-1.330049 0.56183,-2.25879 0.56183,-0.940207 1.77722,-1.490572 1.0778,-0.493035 2.54544,-0.67649 1.46764,-0.194921 3.1646,-0.286649 l 0,-0.412774 q 0,-0.756752 -0.22932,-1.215389 -0.22932,-0.470104 -0.64209,-0.722354 -0.41278,-0.263717 -1.00901,-0.343978 -0.59622,-0.09173 -1.22685,-0.09173 -0.74529,0 -1.75429,0.229319 -1.009,0.217853 -2.01801,0.642092 l -0.12612,0 0,-2.189994 q 0.59623,-0.171989 1.70842,-0.378376 1.1122,-0.206387 2.20146,-0.206387 1.31859,0 2.2244,0.206387 0.90581,0.206387 1.62816,0.745286 0.69942,0.527433 1.0434,1.364447 0.34398,0.837013 0.34398,2.040937 l 0,8.759977 -2.14413,0 0,-1.364447 z"
         style="font-style:normal;font-variant:normal;font-weight:normal;font-stretch:normal;font-size:23.48224258px;font-family:Tahoma;-inkscape-font-specification:'Tahoma, Normal';text-align:start;writing-mode:lr-tb;text-anchor:start;stroke-width:0.58703583"
         id="path3378" />
      <path
         d="m 162.21747,44.467264 q -0.10319,0.619161 -0.37837,1.203924 -0.27518,0.584763 -0.71089,1.0434 -0.42424,0.458638 -0.99754,0.745286 -0.56183,0.275183 -1.22685,0.275183 -0.85995,0 -1.50204,-0.36691 -0.63063,-0.378376 -1.05487,-0.974605 -0.41277,-0.607695 -0.61916,-1.352981 -0.20638,-0.756752 -0.20638,-1.513504 0,-0.825547 0.26371,-1.582299 0.26372,-0.768218 0.75675,-1.352981 0.49304,-0.584763 1.19246,-0.928741 0.69942,-0.343978 1.57084,-0.343978 0.38984,0 0.85994,0.126125 0.48157,0.114659 0.88288,0.355444 0.40131,0.240785 0.67649,0.596229 0.27518,0.355444 0.27518,0.825548 0,0.389841 -0.22932,0.561831 -0.21785,0.171989 -0.58476,0.171989 -0.38984,0 -0.5733,-0.149058 -0.18345,-0.160523 -0.26371,-0.389841 -0.0803,-0.229319 -0.11466,-0.493036 -0.0344,-0.275182 -0.14906,-0.504501 -0.10319,-0.229319 -0.34398,-0.378376 -0.24078,-0.160523 -0.72235,-0.160523 -0.5733,0 -0.97461,0.275182 -0.38984,0.263717 -0.63062,0.687957 -0.24079,0.424239 -0.35545,0.940207 -0.10319,0.504501 -0.10319,0.98607 0,0.584763 0.13759,1.21539 0.13759,0.630626 0.44717,1.15806 0.30958,0.527433 0.79115,0.871411 0.49304,0.332512 1.18099,0.332512 0.48157,0 0.85995,-0.160523 0.37837,-0.160523 0.66502,-0.435706 0.29812,-0.275182 0.51597,-0.630626 0.22932,-0.36691 0.40131,-0.768218 l 0.26371,0.114659 z"
         style="font-style:normal;font-variant:normal;font-weight:normal;font-stretch:normal;font-size:23.48224258px;font-family:Scheherazade;-inkscape-font-specification:'Scheherazade, Normal';text-align:start;writing-mode:lr-tb;text-anchor:start;stroke-width:0.58703583"
         id="path3380" />
      <path
         d="m 163.55899,47.10443 0,-0.550365 0.45864,0 q 0.45864,0 0.64209,-0.183455 0.18346,-0.183455 0.18346,-0.550365 l 0,-13.117034 q 0,-0.36691 -0.18346,-0.550365 -0.18345,-0.183455 -0.64209,-0.183455 l -0.55037,0 0,-0.550365 1.00901,0 q 0.36691,0 0.73382,-0.183455 0.36691,-0.183455 0.73382,-0.550365 l 0.18345,0 0,7.796838 q 0.82555,-1.009002 1.6511,-1.375912 0.91727,-0.458638 1.92628,-0.458638 1.37591,0 2.10973,0.825548 0.73382,0.73382 0.73382,2.384915 l 0,5.962288 q 0,0.36691 0.18345,0.550365 0.27519,0.183455 0.6421,0.183455 l 0.45863,0 0,0.550365 -3.85255,0 0,-0.550365 0.45864,0 q 0.45863,0 0.64209,-0.183455 0.18345,-0.183455 0.18345,-0.550365 l 0,-5.778833 q 0,-1.559368 -0.55036,-2.018005 -0.45864,-0.550365 -1.28419,-0.550365 -0.73382,0 -1.65109,0.458637 -0.82555,0.458638 -1.6511,1.559368 l 0,6.329198 q 0,0.36691 0.18346,0.550365 0.27518,0.183455 0.64209,0.183455 l 0.45864,0 0,0.550365 -3.85256,0 z"
         style="font-style:normal;font-variant:normal;font-weight:normal;font-stretch:normal;font-size:23.48224258px;font-family:NSimSun;-inkscape-font-specification:'NSimSun, Normal';text-align:start;writing-mode:lr-tb;text-anchor:start;stroke-width:0.58703583"
         id="path3382" />
      <path
         d="m 176.35498,45.384539 0,-6.386528 -1.34152,0 0,-0.710888 1.34152,0 0,-2.889416 0.5045,0.08026 0.84848,0.02293 q 0.17199,0 0.48157,-0.01147 0.32104,-0.01147 0.45864,-0.01147 l 0.84848,-0.08026 0,2.889416 1.88041,0 0,0.710888 -1.88041,0 0,6.386528 q 0,0.584763 0.16052,0.814082 0.16052,0.217853 0.59623,0.217853 0.42424,0 0.69942,-0.355444 0.28665,-0.36691 0.35544,-0.986071 l 0.63063,0 q 0,0.584763 -0.25225,1.054866 -0.24078,0.470104 -0.71089,0.859946 -0.90581,0.710888 -2.30465,0.710888 -1.34152,0 -1.83455,-0.447172 -0.48157,-0.447171 -0.48157,-1.868948 z"
         style="font-style:normal;font-variant:normal;font-weight:normal;font-stretch:normal;font-size:23.48224258px;font-family:'Bodoni Bd BT';-inkscape-font-specification:'Bodoni Bd BT, Normal';text-align:start;writing-mode:lr-tb;text-anchor:start;stroke-width:0.58703583"
         id="path3384" />
      <path
         d="m 192.90033,36.853881 q 0,0.36691 -0.25225,0.630627 -0.25225,0.263716 -0.61916,0.263716 -0.36691,0 -0.63063,-0.252251 -0.25225,-0.25225 -0.25225,-0.642092 0,-0.36691 0.25225,-0.607695 0.26372,-0.252251 0.63063,-0.252251 0.35544,0 0.60769,0.252251 0.26372,0.252251 0.26372,0.607695 z m -2.82062,10.617459 0,-0.332512 q 0.38984,0 0.63062,-0.05733 0.24079,-0.05733 0.36691,-0.206387 0.13759,-0.149057 0.18346,-0.389842 0.0459,-0.25225 0.0459,-0.630626 l 0,-4.230932 q 0,-0.194921 -0.0229,-0.401307 -0.0115,-0.206387 -0.0803,-0.378376 -0.0573,-0.17199 -0.18346,-0.275183 -0.11466,-0.114659 -0.32104,-0.114659 -0.13759,0 -0.29812,0.04586 -0.16052,0.0344 -0.32104,0.09173 l -0.11466,-0.30958 2.39638,-0.963139 0.37837,0 0,6.535585 q 0,0.378376 0.0459,0.630626 0.0459,0.240785 0.17199,0.389842 0.13759,0.149058 0.36691,0.206387 0.24078,0.05733 0.63062,0.05733 l 0,0.332512 -3.87548,0 z"
         style="font-style:normal;font-variant:normal;font-weight:normal;font-stretch:normal;font-size:23.48224258px;font-family:Scheherazade;-inkscape-font-specification:'Scheherazade, Normal';text-align:start;writing-mode:lr-tb;text-anchor:start;stroke-width:0.58703583"
         id="path3386" />
      <path
         d="m 194.75781,46.771918 1.41031,0 0,-7.796838 -1.55937,0 0,-0.733821 2.41931,-0.0344 q 0.58477,0 1.06634,-0.02293 0.49303,-0.0344 1.28418,-0.103194 l 0,2.327586 q 0.66503,-1.203924 1.57084,-1.765755 0.9058,-0.561831 2.16706,-0.561831 1.5135,0 2.09826,0.630627 0.59623,0.630627 0.59623,2.68303 l 0,5.377525 1.36445,0 0,0.699422 -5.73297,0 0,-0.699422 1.20392,0 0,-6.489721 q 0,-0.653559 -0.22931,-0.928741 -0.22932,-0.286649 -0.73382,-0.286649 -0.84848,0 -1.57084,1.009003 -0.71089,1.009002 -0.71089,2.304653 l 0,4.391455 1.181,0 0,0.699422 -5.8247,0 0,-0.699422 z"
         style="font-style:normal;font-variant:normal;font-weight:normal;font-stretch:normal;font-size:23.48224258px;font-family:'Bodoni Bd BT';-inkscape-font-specification:'Bodoni Bd BT, Normal';text-align:start;writing-mode:lr-tb;text-anchor:start;stroke-width:0.58703583"
         id="path3388" />
    </g>
    <g
       transform="matrix(0.11858097,0.01759523,-0.01788945,0.11663075,39.659064,34.614426)"
       style="font-style:normal;font-variant:normal;font-weight:normal;font-stretch:normal;font-size:399.98950195px;line-height:1.25;font-family:Scheherazade;-inkscape-font-specification:'Scheherazade, Normal';text-align:start;letter-spacing:0px;word-spacing:0px;writing-mode:lr-tb;text-anchor:start;fill:#000000;fill-opacity:1;stroke:none"
       id="flowRoot855">
      <path
         d="m 202.24298,604.93382 q 0,40.8803 13.62677,64.04581 14.98945,21.80283 35.4296,21.80283 20.44015,0 31.34157,-14.98945 10.90141,-14.98944 10.90141,-55.86975 0,-27.25354 -12.26409,-42.24298 -10.90141,-14.98945 -27.25354,-14.98945 -14.98944,0 -28.61621,9.53874 -12.26409,8.17606 -23.16551,32.70425 z m 53.1444,-55.86975 q 32.70424,0 46.33101,21.80283 14.98945,21.80282 14.98945,49.05636 0,40.88031 -20.44015,61.32046 -19.07748,19.07748 -44.96834,19.07748 -36.79228,0 -55.86975,-27.25354 -19.07748,-28.61621 -19.07748,-81.76061 0,-62.68314 23.16551,-95.38738 23.16551,-34.06692 62.68313,-34.06692 19.07748,0 29.9789,10.90141 12.26409,10.90142 12.26409,19.07748 0,8.17606 -4.08803,12.26409 -2.72536,4.08803 -10.90142,4.08803 -6.81338,0 -10.90141,-2.72535 -2.72536,-4.08803 -2.72536,-10.90142 0,-2.72535 1.36268,-5.45071 0,-2.72535 0,-5.4507 0,-5.45071 -4.08803,-8.17606 -4.08803,-4.08804 -14.98945,-4.08804 -23.1655,0 -39.51763,21.80283 -16.35212,20.44016 -16.35212,91.29935 8.17606,-17.7148 21.80283,-25.89086 14.98945,-9.53873 31.34157,-9.53873 z"
         style="font-style:normal;font-variant:normal;font-weight:normal;font-stretch:normal;font-family:NSimSun;-inkscape-font-specification:NSimSun"
         id="path3361" />
      <path
         d="m 348.39008,588.92236 q 0,-25.20952 6.30238,-46.33101 6.47271,-21.12149 18.7368,-36.96261 13.62677,-17.37413 30.31956,-26.06119 16.69279,-8.8574 35.94061,-8.8574 9.53873,0 18.39613,2.21435 9.02774,2.21435 17.54447,6.81338 16.69279,8.8574 30.14922,26.5722 12.43443,16.18179 19.07748,37.81428 6.64305,21.46216 6.64305,46.16068 0,24.18751 -6.64305,44.11666 -6.64305,19.92915 -20.61049,37.98462 -13.2861,16.86313 -29.97889,26.0612 -16.52246,9.19806 -34.57792,9.19806 -17.37413,0 -34.06693,-8.68706 -16.69279,-8.68707 -29.63822,-24.86885 -12.94543,-16.35213 -20.26982,-38.66596 -7.32438,-22.48417 -7.32438,-46.50135 z m 91.29935,-107.8218 q -5.45071,0 -9.70908,1.022 -4.25836,1.02201 -7.83539,3.4067 -6.64305,4.08803 -9.19807,13.11576 -1.70334,5.62104 -2.89569,12.94543 -1.19234,7.15406 -1.19234,16.35212 -0.511,20.61049 -0.85167,36.79228 -0.34067,16.18179 -0.34067,34.74826 l 0,8.34639 q 0,60.97979 6.64305,75.11757 6.64305,14.13777 25.37986,14.13777 18.90714,0 25.72052,-14.47844 3.40669,-7.32439 5.11004,-26.74254 1.70335,-19.41814 1.70335,-52.63339 l 0,-4.4287 q 0,-18.39614 -0.17034,-32.02291 -0.17033,-13.7971 -0.34067,-26.74253 0,-9.3684 -0.511,-16.86312 -0.34067,-7.49473 -1.02201,-11.92343 -2.55502,-16.01145 -9.70907,-22.99517 -7.15406,-7.15405 -20.78082,-7.15405 z"
         style="font-style:normal;font-variant:normal;font-weight:normal;font-stretch:normal;font-size:348.84527588px;font-family:'Bodoni Bd BT';-inkscape-font-specification:'Bodoni Bd BT, Normal';text-align:start;writing-mode:lr-tb;text-anchor:start"
         id="path3363" />
      <path
         d="m 565.2077,703.04655 0,-77.51018 q 0,-18.56387 -0.84381,-27.96635 -0.48218,-7.35322 -3.13416,-17.96115 l 19.76931,-4.46015 q 2.29035,7.23268 3.25471,13.98318 0.48218,2.53144 1.20544,13.13936 l 2.53144,0 q 6.14778,-12.29555 15.42971,-19.28714 10.0052,-8.07648 22.78293,-8.07648 7.23268,0 13.98318,2.65198 6.75049,2.53143 11.33119,7.23267 6.87104,6.7505 9.76411,20.01041 l 1.44654,0 q 7.23267,-13.98318 16.99679,-21.45694 10.48738,-8.43812 23.50619,-8.43812 15.79135,0 24.22947,8.79975 7.35322,7.35322 10.36684,22.4213 2.1698,10.96956 2.1698,30.61833 l 0,66.29953 -20.73367,0 0,-72.08567 q 0,-9.52303 -1.08491,-15.6708 -1.68762,-9.52303 -6.02723,-14.82699 -5.4245,-6.38886 -15.18862,-6.38886 -11.0901,0 -20.49258,10.60792 -5.6656,6.38887 -13.50099,19.76932 0.24108,2.04926 0.24108,6.02723 l 0,72.56785 -20.73367,0 0,-72.08567 q 0,-15.30917 -3.01361,-23.5062 -5.06288,-13.38045 -19.16659,-13.38045 -10.84902,0 -20.61313,10.84901 -5.6656,6.26832 -13.74209,20.85422 l 0,77.26909 -20.73367,0 z"
         style="font-style:normal;font-variant:normal;font-weight:normal;font-stretch:normal;font-size:246.87535095px;font-family:Alef;-inkscape-font-specification:'Alef, Normal';text-align:start;writing-mode:lr-tb;text-anchor:start"
         id="path3365" />
      <path
         d="m 809.6722,605.64651 q 0,-3.85743 -1.92872,-5.78614 -1.92871,-2.89307 -6.75049,-2.89307 l -20.2515,0 0,-5.78614 9.64357,0 q 8.67921,0 16.39407,-0.96436 7.71485,-1.92871 14.46535,-5.78614 l 1.92871,0 0,101.25747 q 0,3.85742 1.92872,5.78614 2.89307,1.92871 6.75049,1.92871 l 20.2515,0 0,5.78614 -71.36241,0 0,-5.78614 20.2515,0 q 4.82178,0 6.75049,-1.92871 1.92872,-1.92872 1.92872,-5.78614 l 0,-80.04162 z m 11.57228,-19.28714 0,0 z m -3.85743,-54.00398 q 4.82179,0 8.67921,3.85743 3.85743,2.89307 3.85743,7.71485 0,4.82179 -3.85743,8.67921 -3.85742,3.85743 -8.67921,3.85743 -4.82178,0 -8.67921,-3.85743 -3.85743,-3.85742 -3.85743,-8.67921 0,-4.82178 3.85743,-7.71485 3.85743,-3.85743 8.67921,-3.85743 z"
         style="font-style:normal;font-variant:normal;font-weight:normal;font-stretch:normal;font-size:246.87535095px;font-family:NSimSun;-inkscape-font-specification:'NSimSun, Normal';text-align:start;writing-mode:lr-tb;text-anchor:start"
         id="path3367" />
      <path
         d="m 882.11945,695.69333 14.82699,0 0,-81.97033 -16.39407,0 0,-7.71486 25.43491,-0.36163 q 6.14778,0 11.21065,-0.24109 5.18342,-0.36163 13.501,-1.0849 l 0,24.47055 q 6.99158,-12.65718 16.51461,-18.56387 9.52302,-5.90668 22.78293,-5.90668 15.91189,0 22.05966,6.62995 6.26832,6.62996 6.26832,28.20744 l 0,56.53542 14.34485,0 0,7.35322 -60.27234,0 0,-7.35322 12.65718,0 0,-68.22825 q 0,-6.87104 -2.41089,-9.76411 -2.41089,-3.01361 -7.71486,-3.01361 -8.9203,0 -16.51461,10.60792 -7.47376,10.60793 -7.47376,24.22947 l 0,46.16858 12.41609,0 0,7.35322 -61.23666,0 0,-7.35322 z"
         style="font-style:normal;font-variant:normal;font-weight:normal;font-stretch:normal;font-size:246.87535095px;font-family:'Bodoni Bd BT';-inkscape-font-specification:'Bodoni Bd BT, Normal';text-align:start;writing-mode:lr-tb;text-anchor:start"
         id="path3369" />
    </g>
    <circle
       style="fill:none;stroke:#000000;stroke-width:2.2650001;stroke-linejoin:round;stroke-miterlimit:4;stroke-dasharray:none"
       id="path899"
       cx="101.29762"
       cy="100.98154"
       r="61"
       inkscape:export-xdpi="96"
       inkscape:export-ydpi="96" />
  </g>
</svg>
